<svg xmlns="http://www.w3.org/2000/svg" xmlns:xlink="http://www.w3.org/1999/xlink" xmlns:lucid="lucid" width="940" height="372"><g transform="translate(-260 -227)" lucid:page-tab-id="095k.sY-btMe"><path d="M280 300h410v85H280zM690 300h490v85H690z" fill="#fff" fill-opacity=".9"/><path d="M280 385h410v102H280zM690 385h490v102H690z" fill-opacity="0"/><path d="M280 487h410v92H280zM690 487h490v92H690z" fill="#fff" fill-opacity=".9"/><path d="M280 300v85M690 300v85M1180 300v85M280 385v102M690 385v102M1180 385v102M280 487v92M690 487v92M1180 487v92M280 300h410M690 300h490M280 385h410M690 385h490M280 487h410M280 579h410M690 487h490M690 579h490" stroke="#000" fill="none"/><use xlink:href="#a" transform="matrix(1,0,0,1,285,305) translate(0 16.865234375)"/><use xlink:href="#b" transform="matrix(1,0,0,1,285,305) translate(53.7890625 16.865234375)"/><use xlink:href="#c" transform="matrix(1,0,0,1,285,305) translate(108.486328125 16.865234375)"/><use xlink:href="#d" transform="matrix(1,0,0,1,285,305) translate(146.8359375 16.865234375)"/><use xlink:href="#e" transform="matrix(1,0,0,1,695,305) translate(0 16.865234375)"/><use xlink:href="#f" transform="matrix(1,0,0,1,695,305) translate(13.046875 16.865234375)"/><use xlink:href="#g" transform="matrix(1,0,0,1,695,305) translate(67.7734375 16.865234375)"/><use xlink:href="#h" transform="matrix(1,0,0,1,695,305) translate(107.001953125 16.865234375)"/><use xlink:href="#i" transform="matrix(1,0,0,1,695,305) translate(153.37890625 16.865234375)"/><use xlink:href="#j" transform="matrix(1,0,0,1,695,305) translate(201.884765625 16.865234375)"/><use xlink:href="#k" transform="matrix(1,0,0,1,695,305) translate(272.48046875 16.865234375)"/><use xlink:href="#l" transform="matrix(1,0,0,1,695,305) translate(319.189453125 16.865234375)"/><use xlink:href="#m" transform="matrix(1,0,0,1,695,305) translate(370.634765625 16.865234375)"/><use xlink:href="#n" transform="matrix(1,0,0,1,695,305) translate(0 37.685546875)"/><use xlink:href="#o" transform="matrix(1,0,0,1,695,305) translate(50.68359375 37.685546875)"/><use xlink:href="#p" transform="matrix(1,0,0,1,695,305) translate(139.9609375 37.685546875)"/><use xlink:href="#q" transform="matrix(1,0,0,1,695,305) translate(187.265625 37.685546875)"/><use xlink:href="#r" transform="matrix(1,0,0,1,695,305) translate(211.298828125 37.685546875)"/><use xlink:href="#s" transform="matrix(1,0,0,1,695,305) translate(266.923828125 37.685546875)"/><use xlink:href="#t" transform="matrix(1,0,0,1,695,305) translate(293.349609375 37.685546875)"/><use xlink:href="#q" transform="matrix(1,0,0,1,695,305) translate(351.591796875 37.685546875)"/><use xlink:href="#u" transform="matrix(1,0,0,1,695,305) translate(375.625 37.685546875)"/><use xlink:href="#v" transform="matrix(1,0,0,1,695,305) translate(427.734375 37.685546875)"/><g><use xlink:href="#w" transform="matrix(1,0,0,1,285,390) translate(0 17.06666666666667)"/><use xlink:href="#x" transform="matrix(1,0,0,1,285,390) translate(45.205078125 17.06666666666667)"/><use xlink:href="#y" transform="matrix(1,0,0,1,285,390) translate(67.998046875 17.06666666666667)"/><use xlink:href="#z" transform="matrix(1,0,0,1,285,390) translate(107.255859375 17.06666666666667)"/><use xlink:href="#A" transform="matrix(1,0,0,1,285,390) translate(169.306640625 17.06666666666667)"/><use xlink:href="#b" transform="matrix(1,0,0,1,285,390) translate(223.095703125 17.06666666666667)"/><use xlink:href="#B" transform="matrix(1,0,0,1,285,390) translate(277.79296875 17.06666666666667)"/></g><g><use xlink:href="#e" transform="matrix(1,0,0,1,695,390) translate(0 16.865234375)"/><use xlink:href="#f" transform="matrix(1,0,0,1,695,390) translate(13.046875 16.865234375)"/><use xlink:href="#g" transform="matrix(1,0,0,1,695,390) translate(67.7734375 16.865234375)"/><use xlink:href="#C" transform="matrix(1,0,0,1,695,390) translate(107.001953125 16.865234375)"/><use xlink:href="#D" transform="matrix(1,0,0,1,695,390) translate(141.943359375 16.865234375)"/><use xlink:href="#n" transform="matrix(1,0,0,1,695,390) translate(185.15625 16.865234375)"/><use xlink:href="#E" transform="matrix(1,0,0,1,695,390) translate(235.83984375 16.865234375)"/><use xlink:href="#F" transform="matrix(1,0,0,1,695,390) translate(288.84765625 16.865234375)"/><use xlink:href="#x" transform="matrix(1,0,0,1,695,390) translate(328.623046875 16.865234375)"/><use xlink:href="#G" transform="matrix(1,0,0,1,695,390) translate(351.416015625 16.865234375)"/><use xlink:href="#H" transform="matrix(1,0,0,1,695,390) translate(0 37.685546875)"/><use xlink:href="#I" transform="matrix(1,0,0,1,695,390) translate(96.318359375 37.685546875)"/><use xlink:href="#J" transform="matrix(1,0,0,1,695,390) translate(127.48046875 37.685546875)"/><use xlink:href="#K" transform="matrix(1,0,0,1,695,390) translate(170.400390625 37.685546875)"/><use xlink:href="#L" transform="matrix(1,0,0,1,695,390) translate(199.365234375 37.685546875)"/><use xlink:href="#M" transform="matrix(1,0,0,1,695,390) translate(250.029296875 37.685546875)"/><use xlink:href="#N" transform="matrix(1,0,0,1,695,390) translate(304.345703125 37.685546875)"/><use xlink:href="#O" transform="matrix(1,0,0,1,695,390) translate(356.162109375 37.685546875)"/><use xlink:href="#P" transform="matrix(1,0,0,1,695,390) translate(390.478515625 37.685546875)"/><use xlink:href="#Q" transform="matrix(1,0,0,1,695,390) translate(424.912109375 37.685546875)"/><use xlink:href="#I" transform="matrix(1,0,0,1,695,390) translate(0 58.505859375)"/><use xlink:href="#R" transform="matrix(1,0,0,1,695,390) translate(31.162109375 58.505859375)"/><use xlink:href="#S" transform="matrix(1,0,0,1,695,390) translate(65.947265625 58.505859375)"/><use xlink:href="#T" transform="matrix(1,0,0,1,695,390) translate(100.263671875 58.505859375)"/><use xlink:href="#U" transform="matrix(1,0,0,1,695,390) translate(146.826171875 58.505859375)"/><use xlink:href="#V" transform="matrix(1,0,0,1,695,390) translate(214.091796875 58.505859375)"/><use xlink:href="#P" transform="matrix(1,0,0,1,695,390) translate(237.080078125 58.505859375)"/><use xlink:href="#W" transform="matrix(1,0,0,1,695,390) translate(271.513671875 58.505859375)"/><use xlink:href="#n" transform="matrix(1,0,0,1,695,390) translate(344.8046875 58.505859375)"/><use xlink:href="#X" transform="matrix(1,0,0,1,695,390) translate(395.48828125 58.505859375)"/><use xlink:href="#Y" transform="matrix(1,0,0,1,695,390) translate(0 79.326171875)"/></g><g><use xlink:href="#Z" transform="matrix(1,0,0,1,285,492) translate(0 16.865234375)"/><use xlink:href="#aa" transform="matrix(1,0,0,1,285,492) translate(40.068359375 16.865234375)"/><use xlink:href="#ab" transform="matrix(1,0,0,1,285,492) translate(130.234375 16.865234375)"/><use xlink:href="#ac" transform="matrix(1,0,0,1,285,492) translate(214.130859375 16.865234375)"/></g><g><use xlink:href="#e" transform="matrix(1,0,0,1,695,492) translate(0 16.865234375)"/><use xlink:href="#f" transform="matrix(1,0,0,1,695,492) translate(13.046875 16.865234375)"/><use xlink:href="#g" transform="matrix(1,0,0,1,695,492) translate(67.7734375 16.865234375)"/><use xlink:href="#ad" transform="matrix(1,0,0,1,695,492) translate(107.001953125 16.865234375)"/><use xlink:href="#ae" transform="matrix(1,0,0,1,695,492) translate(172.236328125 16.865234375)"/><use xlink:href="#af" transform="matrix(1,0,0,1,695,492) translate(204.19921875 16.865234375)"/><use xlink:href="#ag" transform="matrix(1,0,0,1,695,492) translate(239.1015625 16.865234375)"/><use xlink:href="#x" transform="matrix(1,0,0,1,695,492) translate(273.291015625 16.865234375)"/><use xlink:href="#ah" transform="matrix(1,0,0,1,695,492) translate(296.083984375 16.865234375)"/><use xlink:href="#ai" transform="matrix(1,0,0,1,695,492) translate(382.98828125 16.865234375)"/><use xlink:href="#aj" transform="matrix(1,0,0,1,695,492) translate(0 37.685546875)"/><use xlink:href="#ak" transform="matrix(1,0,0,1,695,492) translate(83.759765625 37.685546875)"/><use xlink:href="#al" transform="matrix(1,0,0,1,695,492) translate(166.8359375 37.685546875)"/><use xlink:href="#K" transform="matrix(1,0,0,1,695,492) translate(264.951171875 37.685546875)"/><use xlink:href="#P" transform="matrix(1,0,0,1,695,492) translate(293.916015625 37.685546875)"/><use xlink:href="#am" transform="matrix(1,0,0,1,695,492) translate(328.349609375 37.685546875)"/></g><path d="M280 247h900v53H280z" fill-opacity="0"/><path d="M280 247v53M1180 247v53M280 247h900M280 300h900" stroke="#333" fill="none"/><g><use xlink:href="#an" transform="matrix(1,0,0,1,285,252) translate(0 20.613064236111114)"/><use xlink:href="#ao" transform="matrix(1,0,0,1,285,252) translate(107.94704861111111 20.613064236111114)"/></g><defs><path d="M855-938c0-185-202-291-399-291H204v582h271c185 5 380-116 380-291zm130 0c0 214-192 369-387 402L895 0H743L456-517H204V0H72v-1355h384c256-7 529 172 529 417" id="ap"/><path d="M497-108c108 0 303-51 303-143v-220c-2 23-338 19-365 38-104 20-200 82-200 182 0 95 87 143 262 143zm28-871c161 0 405 100 405 248v579c0 27 16 41 48 44-1 21-3 64-5 129-72-4-122-33-151-87-82 59-188 88-318 88C233 22 97-70 97-253c0-145 124-253 248-288 70-20 368-9 427-58 17-9 27-25 29-46-1 7-1-13-1-60 0-84-168-147-260-147-166 0-269 58-309 174l-126-27c31-178 203-274 420-274" id="aq"/><path d="M240-1205c-40 0-79-36-79-76s39-76 79-76c41 0 78 35 78 76s-37 76-78 76zM47-957h257V0H174v-827H47v-130" id="ar"/><path d="M545-849c-196 0-341 171-341 371V0H74v-957h130v174c77-131 190-196 341-196 285 0 449 200 449 493V0H862v-478c2-219-106-371-317-371" id="as"/><path d="M253 269c88 1 142-24 163-75L519-65 33-957h148l400 735 292-735h140L555 194c-58 142-154 210-302 205V269" id="at"/><g id="a"><use transform="matrix(0.009765625,0,0,0.009765625,0,0)" xlink:href="#ap"/><use transform="matrix(0.009765625,0,0,0.009765625,10.712890625,0)" xlink:href="#aq"/><use transform="matrix(0.009765625,0,0,0.009765625,21.123046875,0)" xlink:href="#ar"/><use transform="matrix(0.009765625,0,0,0.009765625,25.029296875,0)" xlink:href="#as"/><use transform="matrix(0.009765625,0,0,0.009765625,35.9375,0)" xlink:href="#at"/></g><path d="M966-625c20-2 56 36 56 56V0H893v-141C803-32 685 22 540 22 268 22 57-229 57-506v-345c-8-277 211-528 483-528s491 251 483 528H893c5-220-139-398-353-398-205 0-353 174-353 382v377c-5 208 148 382 353 382 208 0 359-175 354-388H606c-1-25-2-91 0-129h360" id="au"/><path d="M455-849c-173 0-251 180-251 371V0H74v-957h130v106c60-85 144-128 251-128 146 0 245 69 296 208 37-139 135-208 295-208 233 0 349 167 349 501V0h-130v-478c0-247-73-371-219-371-169 0-241 180-241 371V0H675l-1-478c0-247-73-371-219-371" id="av"/><path d="M52-478c0-256 228-501 485-501 264 0 489 248 480 516H180c0 180 174 355 357 355 148 0 301-110 347-219l130 23C955-140 749 17 537 22 280 28 52-222 52-478zm815-115c-38-129-172-257-330-256-158 0-295 130-340 256h670" id="aw"/><g id="b"><use transform="matrix(0.009765625,0,0,0.009765625,0,0)" xlink:href="#au"/><use transform="matrix(0.009765625,0,0,0.009765625,11.123046875,0)" xlink:href="#aq"/><use transform="matrix(0.009765625,0,0,0.009765625,21.533203125,0)" xlink:href="#av"/><use transform="matrix(0.009765625,0,0,0.009765625,36.640625,0)" xlink:href="#aw"/></g><path d="M848-827c4-216-138-398-348-398H204v1095h296c203 6 348-189 348-398v-299zm130 299C987-254 769 0 500 0H74v-1355h426c267-9 478 255 478 528v299" id="ax"/><g id="c"><use transform="matrix(0.009765625,0,0,0.009765625,0,0)" xlink:href="#ax"/><use transform="matrix(0.009765625,0,0,0.009765625,10.712890625,0)" xlink:href="#aq"/><use transform="matrix(0.009765625,0,0,0.009765625,20.498046875,0)" xlink:href="#at"/></g><path d="M543 22C276 22 65-235 65-506v-849h130v867c-5 202 149 380 348 380s349-180 349-384v-863h130v849c8 271-212 528-479 528" id="ay"/><path d="M550-827c-191 0-346 159-346 349V0H72v-957h132v174c85-116 198-174 339-174h204v174c-69-29-134-44-197-44" id="az"/><path d="M-2-478c0-256 249-501 505-501 147 0 261 65 343 196v-572h132V0H846v-174C761-43 645 22 498 22 243 22-2-223-2-478zm843 0c0-191-151-371-338-371S128-665 128-478s183 370 370 370c188 0 343-180 343-370" id="aA"/><path d="M898-260C898-89 674 20 489 20 280 20 75-78 57-254l126-27c2 114 176 171 313 171 113 0 265-50 265-150 0-60-40-102-120-127-21-6-104-22-252-42-166-23-242-71-302-158-134-339 365-481 654-327 94 50 148 120 161 213l-126 27c-25-116-134-174-329-174-116 0-251 47-251 149 0 73 54 127 164 147 83 15 168 18 253 29 83 11 158 46 225 101 40 33 60 87 60 162" id="aB"/><g id="d"><use transform="matrix(0.009765625,0,0,0.009765625,0,0)" xlink:href="#ay"/><use transform="matrix(0.009765625,0,0,0.009765625,11.23046875,0)" xlink:href="#as"/><use transform="matrix(0.009765625,0,0,0.009765625,22.138671875,0)" xlink:href="#az"/><use transform="matrix(0.009765625,0,0,0.009765625,29.7265625,0)" xlink:href="#aw"/><use transform="matrix(0.009765625,0,0,0.009765625,40.712890625,0)" xlink:href="#aq"/><use transform="matrix(0.009765625,0,0,0.009765625,51.123046875,0)" xlink:href="#aA"/><use transform="matrix(0.009765625,0,0,0.009765625,61.9921875,0)" xlink:href="#ar"/><use transform="matrix(0.009765625,0,0,0.009765625,65.8984375,0)" xlink:href="#as"/><use transform="matrix(0.009765625,0,0,0.009765625,76.806640625,0)" xlink:href="#aw"/><use transform="matrix(0.009765625,0,0,0.009765625,87.79296875,0)" xlink:href="#aB"/><use transform="matrix(0.009765625,0,0,0.009765625,97.587890625,0)" xlink:href="#aB"/></g><path d="M49-130h171v-1096H49v-129h479v129H352v1096h176V0H49v-130" id="aC"/><use transform="matrix(0.009765625,0,0,0.009765625,0,0)" xlink:href="#aC" id="e"/><path d="M431-1222c-103-2-191 65-188 167v98h188v130H243V0H111v-827H33v-130h78c-7-146 8-241 94-317 61-53 135-81 226-81v133" id="aD"/><path d="M881-477c0-189-160-372-351-372-189 0-348 181-348 372s160 369 348 369 351-180 351-369zm-829-1c0-256 220-501 478-501 257 0 481 246 481 502S785 22 530 22C276 22 52-223 52-478" id="aE"/><path d="M483-108c191 0 291-169 291-370v-479h130V0H774v-137C701-31 604 22 483 22 219 22 67-183 67-456v-501h130v501c-4 182 112 348 286 348" id="aF"/><g id="f"><use transform="matrix(0.009765625,0,0,0.009765625,0,0)" xlink:href="#aD"/><use transform="matrix(0.009765625,0,0,0.009765625,4.736328125,0)" xlink:href="#aE"/><use transform="matrix(0.009765625,0,0,0.009765625,15.72265625,0)" xlink:href="#aF"/><use transform="matrix(0.009765625,0,0,0.009765625,25.87890625,0)" xlink:href="#as"/><use transform="matrix(0.009765625,0,0,0.009765625,36.787109375,0)" xlink:href="#aA"/></g><path d="M406 0C279 4 176-105 176-232v-595H26v-130c75 0 120-17 137-51 9-17 13-69 13-155h130v206h241v130H306v595c0 70 49 105 146 105 18 0 78-3 95-3V0H406" id="aG"/><path d="M543-849c-184 0-339 185-339 371V0H74v-1355h130v572c84-131 197-196 339-196 250 0 421 235 421 493V0H834v-478c4-195-107-371-291-371" id="aH"/><g id="g"><use transform="matrix(0.009765625,0,0,0.009765625,0,0)" xlink:href="#aG"/><use transform="matrix(0.009765625,0,0,0.009765625,5.9765625,0)" xlink:href="#aH"/><use transform="matrix(0.009765625,0,0,0.009765625,16.240234375,0)" xlink:href="#aq"/><use transform="matrix(0.009765625,0,0,0.009765625,26.181640625,0)" xlink:href="#aG"/></g><path d="M187-1308c59 0 110 49 110 109 0 116-128 289-232 293-4-13-13-36-16-62 43-14 128-67 125-111-63-44-95-87-95-128 0-48 61-101 108-101" id="aI"/><g id="h"><use transform="matrix(0.009765625,0,0,0.009765625,0,0)" xlink:href="#aD"/><use transform="matrix(0.009765625,0,0,0.009765625,4.736328125,0)" xlink:href="#aq"/><use transform="matrix(0.009765625,0,0,0.009765625,15.146484375,0)" xlink:href="#as"/><use transform="matrix(0.009765625,0,0,0.009765625,26.0546875,0)" xlink:href="#aI"/><use transform="matrix(0.009765625,0,0,0.009765625,29.51171875,0)" xlink:href="#aB"/></g><path d="M178-957l334 813 331-813h142L595 0H424L33-957h145" id="aJ"/><g id="i"><use transform="matrix(0.009765625,0,0,0.009765625,0,0)" xlink:href="#aH"/><use transform="matrix(0.009765625,0,0,0.009765625,10.263671875,0)" xlink:href="#aq"/><use transform="matrix(0.009765625,0,0,0.009765625,20.673828125,0)" xlink:href="#aJ"/><use transform="matrix(0.009765625,0,0,0.009765625,30.44921875,0)" xlink:href="#aw"/></g><path d="M51-478c0-256 221-509 478-501 201 6 353 126 426 274H803c-71-96-163-144-274-144-189 0-348 180-348 372 0 191 160 369 348 369 100 0 189-44 266-132h155C852-65 712 22 529 22 275 22 51-223 51-478" id="aK"/><g id="j"><use transform="matrix(0.009765625,0,0,0.009765625,0,0)" xlink:href="#aK"/><use transform="matrix(0.009765625,0,0,0.009765625,10.5859375,0)" xlink:href="#aH"/><use transform="matrix(0.009765625,0,0,0.009765625,20.849609375,0)" xlink:href="#aE"/><use transform="matrix(0.009765625,0,0,0.009765625,31.8359375,0)" xlink:href="#aB"/><use transform="matrix(0.009765625,0,0,0.009765625,41.630859375,0)" xlink:href="#aw"/><use transform="matrix(0.009765625,0,0,0.009765625,52.6171875,0)" xlink:href="#as"/></g><g id="k"><use transform="matrix(0.009765625,0,0,0.009765625,0,0)" xlink:href="#aG"/><use transform="matrix(0.009765625,0,0,0.009765625,5.9765625,0)" xlink:href="#aH"/><use transform="matrix(0.009765625,0,0,0.009765625,16.376953125,0)" xlink:href="#aw"/><use transform="matrix(0.009765625,0,0,0.009765625,27.36328125,0)" xlink:href="#ar"/><use transform="matrix(0.009765625,0,0,0.009765625,31.26953125,0)" xlink:href="#az"/></g><g id="l"><use transform="matrix(0.009765625,0,0,0.009765625,0,0)" xlink:href="#aq"/><use transform="matrix(0.009765625,0,0,0.009765625,9.94140625,0)" xlink:href="#aG"/><use transform="matrix(0.009765625,0,0,0.009765625,15.91796875,0)" xlink:href="#aG"/><use transform="matrix(0.009765625,0,0,0.009765625,21.89453125,0)" xlink:href="#ar"/><use transform="matrix(0.009765625,0,0,0.009765625,25.80078125,0)" xlink:href="#az"/><use transform="matrix(0.009765625,0,0,0.009765625,33.388671875,0)" xlink:href="#aw"/></g><path d="M86-1355h132V0H86v-1355" id="aL"/><path d="M86-101c0-65 55-113 120-113 56 0 111 53 111 109 0 139-105 285-233 290l-15-58c81-31 123-70 126-115-60-2-109-50-109-113" id="aM"/><g id="m"><use transform="matrix(0.009765625,0,0,0.009765625,0,0)" xlink:href="#ar"/><use transform="matrix(0.009765625,0,0,0.009765625,3.90625,0)" xlink:href="#as"/><use transform="matrix(0.009765625,0,0,0.009765625,14.814453125,0)" xlink:href="#aG"/><use transform="matrix(0.009765625,0,0,0.009765625,20.791015625,0)" xlink:href="#aw"/><use transform="matrix(0.009765625,0,0,0.009765625,31.77734375,0)" xlink:href="#as"/><use transform="matrix(0.009765625,0,0,0.009765625,42.685546875,0)" xlink:href="#aG"/><use transform="matrix(0.009765625,0,0,0.009765625,48.662109375,0)" xlink:href="#ar"/><use transform="matrix(0.009765625,0,0,0.009765625,52.568359375,0)" xlink:href="#aE"/><use transform="matrix(0.009765625,0,0,0.009765625,63.5546875,0)" xlink:href="#as"/><use transform="matrix(0.009765625,0,0,0.009765625,74.462890625,0)" xlink:href="#aq"/><use transform="matrix(0.009765625,0,0,0.009765625,84.873046875,0)" xlink:href="#aL"/><use transform="matrix(0.009765625,0,0,0.009765625,88.33984375,0)" xlink:href="#aL"/><use transform="matrix(0.009765625,0,0,0.009765625,91.806640625,0)" xlink:href="#at"/><use transform="matrix(0.009765625,0,0,0.009765625,102.587890625,0)" xlink:href="#aM"/></g><path d="M395 0L60-957h137l259 739 167-476-93-263h137l262 744 258-744h138L991 0H866L692-498 516 0H395" id="aN"/><g id="n"><use transform="matrix(0.009765625,0,0,0.009765625,0,0)" xlink:href="#aN"/><use transform="matrix(0.009765625,0,0,0.009765625,14.052734375,0)" xlink:href="#aw"/><use transform="matrix(0.009765625,0,0,0.009765625,25.0390625,0)" xlink:href="#az"/><use transform="matrix(0.009765625,0,0,0.009765625,32.626953125,0)" xlink:href="#aw"/></g><g id="o"><use transform="matrix(0.009765625,0,0,0.009765625,0,0)" xlink:href="#aF"/><use transform="matrix(0.009765625,0,0,0.009765625,10.15625,0)" xlink:href="#as"/><use transform="matrix(0.009765625,0,0,0.009765625,21.064453125,0)" xlink:href="#aK"/><use transform="matrix(0.009765625,0,0,0.009765625,31.650390625,0)" xlink:href="#aw"/><use transform="matrix(0.009765625,0,0,0.009765625,42.63671875,0)" xlink:href="#az"/><use transform="matrix(0.009765625,0,0,0.009765625,51.005859375,0)" xlink:href="#aG"/><use transform="matrix(0.009765625,0,0,0.009765625,56.982421875,0)" xlink:href="#aq"/><use transform="matrix(0.009765625,0,0,0.009765625,67.392578125,0)" xlink:href="#ar"/><use transform="matrix(0.009765625,0,0,0.009765625,71.298828125,0)" xlink:href="#as"/></g><g id="p"><use transform="matrix(0.009765625,0,0,0.009765625,0,0)" xlink:href="#aN"/><use transform="matrix(0.009765625,0,0,0.009765625,14.052734375,0)" xlink:href="#aH"/><use transform="matrix(0.009765625,0,0,0.009765625,24.31640625,0)" xlink:href="#aq"/><use transform="matrix(0.009765625,0,0,0.009765625,34.2578125,0)" xlink:href="#aG"/></g><g id="q"><use transform="matrix(0.009765625,0,0,0.009765625,0,0)" xlink:href="#aG"/><use transform="matrix(0.009765625,0,0,0.009765625,5.9765625,0)" xlink:href="#aE"/></g><path d="M922-478c0-187-188-371-375-371S209-669 209-478c0 190 155 370 343 370 187 0 370-183 370-370zm130 0c0 255-245 500-500 500-147 0-263-65-348-196V0H72v-1355h132v572c82-131 196-196 343-196 256 0 505 245 505 501" id="aO"/><path d="M177-478c0 192 146 370 333 370s324-179 324-370c0-193-136-371-324-371-187 0-333 180-333 371zm332 742c191 3 334-157 330-347v-91C756-43 647 22 510 22 246 22 47-209 47-478c0-259 208-501 463-501 140 0 250 67 329 201v-179h130v888c6 260-201 463-461 463C272 394 95 221 61 14L188-7c30 151 149 268 321 271" id="aP"/><g id="r"><use transform="matrix(0.009765625,0,0,0.009765625,0,0)" xlink:href="#aO"/><use transform="matrix(0.009765625,0,0,0.009765625,11.11328125,0)" xlink:href="#az"/><use transform="matrix(0.009765625,0,0,0.009765625,19.482421875,0)" xlink:href="#ar"/><use transform="matrix(0.009765625,0,0,0.009765625,23.388671875,0)" xlink:href="#as"/><use transform="matrix(0.009765625,0,0,0.009765625,34.296875,0)" xlink:href="#aP"/><use transform="matrix(0.009765625,0,0,0.009765625,45.0390625,0)" xlink:href="#aM"/></g><g id="s"><use transform="matrix(0.009765625,0,0,0.009765625,0,0)" xlink:href="#aE"/><use transform="matrix(0.009765625,0,0,0.009765625,10.986328125,0)" xlink:href="#az"/></g><g id="t"><use transform="matrix(0.009765625,0,0,0.009765625,0,0)" xlink:href="#aD"/><use transform="matrix(0.009765625,0,0,0.009765625,4.736328125,0)" xlink:href="#aE"/><use transform="matrix(0.009765625,0,0,0.009765625,15.72265625,0)" xlink:href="#az"/><use transform="matrix(0.009765625,0,0,0.009765625,23.466796875,0)" xlink:href="#aP"/><use transform="matrix(0.009765625,0,0,0.009765625,34.208984375,0)" xlink:href="#aE"/><use transform="matrix(0.009765625,0,0,0.009765625,45.1953125,0)" xlink:href="#aG"/></g><g id="u"><use transform="matrix(0.009765625,0,0,0.009765625,0,0)" xlink:href="#aO"/><use transform="matrix(0.009765625,0,0,0.009765625,11.11328125,0)" xlink:href="#az"/><use transform="matrix(0.009765625,0,0,0.009765625,19.482421875,0)" xlink:href="#ar"/><use transform="matrix(0.009765625,0,0,0.009765625,23.388671875,0)" xlink:href="#as"/><use transform="matrix(0.009765625,0,0,0.009765625,34.296875,0)" xlink:href="#aP"/></g><path d="M33 0v-38h34V0H33" id="aQ"/><g id="v"><use transform="matrix(0.009765625,0,0,0.009765625,0,0)" xlink:href="#ar"/><use transform="matrix(0.009765625,0,0,0.009765625,3.90625,0)" xlink:href="#aG"/><use transform="matrix(0.009765625,0,0,0.009765625,9.8828125,0)" xlink:href="#aw"/><use transform="matrix(0.009765625,0,0,0.009765625,20.869140625,0)" xlink:href="#av"/><use transform="matrix(0.009765625,0,0,0.009765625,35.9765625,0)" xlink:href="#aB"/><use transform="matrix(0.05432111111111112,0,0,0.05432111111111112,45.771484375,0)" xlink:href="#aQ"/></g><path d="M204-1355v1225h596V0H74v-1355h130" id="aR"/><path d="M204-656l437-331 87 99-330 254L782 0H626L289-554l-85 65V0H72v-1355h132v699" id="aS"/><g id="w"><use transform="matrix(0.009765625,0,0,0.009765625,0,0)" xlink:href="#aR"/><use transform="matrix(0.009765625,0,0,0.009765625,8.896484375,0)" xlink:href="#aq"/><use transform="matrix(0.009765625,0,0,0.009765625,19.306640625,0)" xlink:href="#aK"/><use transform="matrix(0.009765625,0,0,0.009765625,29.892578125,0)" xlink:href="#aS"/></g><g id="x"><use transform="matrix(0.009765625,0,0,0.009765625,0,0)" xlink:href="#aE"/><use transform="matrix(0.009765625,0,0,0.009765625,10.986328125,0)" xlink:href="#aD"/></g><g id="y"><use transform="matrix(0.009765625,0,0,0.009765625,0,0)" xlink:href="#aq"/><use transform="matrix(0.009765625,0,0,0.009765625,10.41015625,0)" xlink:href="#as"/><use transform="matrix(0.009765625,0,0,0.009765625,21.318359375,0)" xlink:href="#aA"/></g><path d="M985-938c0 247-271 428-529 421H204V0H72v-1355h384c256-7 529 172 529 417zm-130 0c0-191-192-287-399-287H204v578h252c200 4 399-104 399-291" id="aT"/><g id="z"><use transform="matrix(0.009765625,0,0,0.009765625,0,0)" xlink:href="#aT"/><use transform="matrix(0.009765625,0,0,0.009765625,10.3515625,0)" xlink:href="#az"/><use transform="matrix(0.009765625,0,0,0.009765625,18.720703125,0)" xlink:href="#ar"/><use transform="matrix(0.009765625,0,0,0.009765625,22.626953125,0)" xlink:href="#aK"/><use transform="matrix(0.009765625,0,0,0.009765625,33.212890625,0)" xlink:href="#aw"/><use transform="matrix(0.009765625,0,0,0.009765625,44.19921875,0)" xlink:href="#at"/></g><g id="A"><use transform="matrix(0.009765625,0,0,0.009765625,0,0)" xlink:href="#ap"/><use transform="matrix(0.009765625,0,0,0.009765625,10.712890625,0)" xlink:href="#aq"/><use transform="matrix(0.009765625,0,0,0.009765625,21.123046875,0)" xlink:href="#ar"/><use transform="matrix(0.009765625,0,0,0.009765625,25.029296875,0)" xlink:href="#as"/><use transform="matrix(0.009765625,0,0,0.009765625,35.9375,0)" xlink:href="#at"/></g><g id="B"><use transform="matrix(0.009765625,0,0,0.009765625,0,0)" xlink:href="#ap"/><use transform="matrix(0.009765625,0,0,0.009765625,10.712890625,0)" xlink:href="#aw"/><use transform="matrix(0.009765625,0,0,0.009765625,21.69921875,0)" xlink:href="#aB"/><use transform="matrix(0.009765625,0,0,0.009765625,31.494140625,0)" xlink:href="#aE"/><use transform="matrix(0.009765625,0,0,0.009765625,42.48046875,0)" xlink:href="#aF"/><use transform="matrix(0.009765625,0,0,0.009765625,52.63671875,0)" xlink:href="#az"/><use transform="matrix(0.009765625,0,0,0.009765625,61.005859375,0)" xlink:href="#aK"/><use transform="matrix(0.009765625,0,0,0.009765625,71.591796875,0)" xlink:href="#aw"/><use transform="matrix(0.009765625,0,0,0.009765625,82.578125,0)" xlink:href="#aB"/></g><g id="C"><use transform="matrix(0.009765625,0,0,0.009765625,0,0)" xlink:href="#as"/><use transform="matrix(0.009765625,0,0,0.009765625,10.908203125,0)" xlink:href="#aE"/><use transform="matrix(0.009765625,0,0,0.009765625,21.89453125,0)" xlink:href="#aG"/></g><g id="D"><use transform="matrix(0.009765625,0,0,0.009765625,0,0)" xlink:href="#aE"/><use transform="matrix(0.009765625,0,0,0.009765625,10.986328125,0)" xlink:href="#as"/><use transform="matrix(0.009765625,0,0,0.009765625,21.89453125,0)" xlink:href="#aL"/><use transform="matrix(0.009765625,0,0,0.009765625,25.361328125,0)" xlink:href="#at"/></g><g id="E"><use transform="matrix(0.009765625,0,0,0.009765625,0,0)" xlink:href="#aG"/><use transform="matrix(0.009765625,0,0,0.009765625,5.9765625,0)" xlink:href="#aH"/><use transform="matrix(0.009765625,0,0,0.009765625,16.376953125,0)" xlink:href="#aw"/><use transform="matrix(0.009765625,0,0,0.009765625,27.36328125,0)" xlink:href="#az"/><use transform="matrix(0.009765625,0,0,0.009765625,34.951171875,0)" xlink:href="#aw"/></g><g id="F"><use transform="matrix(0.009765625,0,0,0.009765625,0,0)" xlink:href="#aL"/><use transform="matrix(0.009765625,0,0,0.009765625,3.466796875,0)" xlink:href="#aq"/><use transform="matrix(0.009765625,0,0,0.009765625,13.876953125,0)" xlink:href="#aK"/><use transform="matrix(0.009765625,0,0,0.009765625,24.462890625,0)" xlink:href="#aS"/></g><g id="G"><use transform="matrix(0.009765625,0,0,0.009765625,0,0)" xlink:href="#aB"/><use transform="matrix(0.009765625,0,0,0.009765625,9.794921875,0)" xlink:href="#aw"/><use transform="matrix(0.009765625,0,0,0.009765625,20.3125,0)" xlink:href="#aJ"/><use transform="matrix(0.009765625,0,0,0.009765625,30.087890625,0)" xlink:href="#aw"/><use transform="matrix(0.009765625,0,0,0.009765625,41.07421875,0)" xlink:href="#az"/><use transform="matrix(0.009765625,0,0,0.009765625,48.662109375,0)" xlink:href="#aq"/><use transform="matrix(0.009765625,0,0,0.009765625,59.072265625,0)" xlink:href="#aL"/></g><g id="H"><use transform="matrix(0.009765625,0,0,0.009765625,0,0)" xlink:href="#az"/><use transform="matrix(0.009765625,0,0,0.009765625,7.587890625,0)" xlink:href="#aw"/><use transform="matrix(0.009765625,0,0,0.009765625,18.57421875,0)" xlink:href="#aB"/><use transform="matrix(0.009765625,0,0,0.009765625,28.369140625,0)" xlink:href="#aE"/><use transform="matrix(0.009765625,0,0,0.009765625,39.35546875,0)" xlink:href="#aF"/><use transform="matrix(0.009765625,0,0,0.009765625,49.51171875,0)" xlink:href="#az"/><use transform="matrix(0.009765625,0,0,0.009765625,57.880859375,0)" xlink:href="#aK"/><use transform="matrix(0.009765625,0,0,0.009765625,68.466796875,0)" xlink:href="#aw"/><use transform="matrix(0.009765625,0,0,0.009765625,79.453125,0)" xlink:href="#aB"/></g><g id="I"><use transform="matrix(0.009765625,0,0,0.009765625,0,0)" xlink:href="#aD"/><use transform="matrix(0.009765625,0,0,0.009765625,4.736328125,0)" xlink:href="#aE"/><use transform="matrix(0.009765625,0,0,0.009765625,15.72265625,0)" xlink:href="#az"/></g><g id="J"><use transform="matrix(0.009765625,0,0,0.009765625,0,0)" xlink:href="#aD"/><use transform="matrix(0.009765625,0,0,0.009765625,4.736328125,0)" xlink:href="#aq"/><use transform="matrix(0.009765625,0,0,0.009765625,15.146484375,0)" xlink:href="#as"/><use transform="matrix(0.009765625,0,0,0.009765625,26.0546875,0)" xlink:href="#aB"/></g><g id="K"><use transform="matrix(0.009765625,0,0,0.009765625,0,0)" xlink:href="#aE"/><use transform="matrix(0.009765625,0,0,0.009765625,10.986328125,0)" xlink:href="#as"/></g><g id="L"><use transform="matrix(0.009765625,0,0,0.009765625,0,0)" xlink:href="#az"/><use transform="matrix(0.009765625,0,0,0.009765625,7.587890625,0)" xlink:href="#aq"/><use transform="matrix(0.009765625,0,0,0.009765625,17.998046875,0)" xlink:href="#ar"/><use transform="matrix(0.009765625,0,0,0.009765625,21.904296875,0)" xlink:href="#as"/><use transform="matrix(0.009765625,0,0,0.009765625,32.8125,0)" xlink:href="#at"/></g><g id="M"><use transform="matrix(0.009765625,0,0,0.009765625,0,0)" xlink:href="#aP"/><use transform="matrix(0.009765625,0,0,0.009765625,10.7421875,0)" xlink:href="#aq"/><use transform="matrix(0.009765625,0,0,0.009765625,21.15234375,0)" xlink:href="#av"/><use transform="matrix(0.009765625,0,0,0.009765625,36.259765625,0)" xlink:href="#aw"/></g><g id="N"><use transform="matrix(0.009765625,0,0,0.009765625,0,0)" xlink:href="#aA"/><use transform="matrix(0.009765625,0,0,0.009765625,10.869140625,0)" xlink:href="#aq"/><use transform="matrix(0.009765625,0,0,0.009765625,20.654296875,0)" xlink:href="#at"/><use transform="matrix(0.009765625,0,0,0.009765625,31.435546875,0)" xlink:href="#aB"/><use transform="matrix(0.009765625,0,0,0.009765625,41.23046875,0)" xlink:href="#aM"/></g><g id="O"><use transform="matrix(0.009765625,0,0,0.009765625,0,0)" xlink:href="#aO"/><use transform="matrix(0.009765625,0,0,0.009765625,11.11328125,0)" xlink:href="#aF"/><use transform="matrix(0.009765625,0,0,0.009765625,21.26953125,0)" xlink:href="#aG"/></g><g id="P"><use transform="matrix(0.009765625,0,0,0.009765625,0,0)" xlink:href="#aG"/><use transform="matrix(0.009765625,0,0,0.009765625,5.9765625,0)" xlink:href="#aH"/><use transform="matrix(0.009765625,0,0,0.009765625,16.376953125,0)" xlink:href="#aw"/></g><g id="Q"><use transform="matrix(0.009765625,0,0,0.009765625,0,0)" xlink:href="#ar"/><use transform="matrix(0.009765625,0,0,0.009765625,3.90625,0)" xlink:href="#aG"/><use transform="matrix(0.009765625,0,0,0.009765625,9.8828125,0)" xlink:href="#aw"/><use transform="matrix(0.009765625,0,0,0.009765625,20.869140625,0)" xlink:href="#av"/><use transform="matrix(0.009765625,0,0,0.009765625,35.9765625,0)" xlink:href="#aB"/></g><g id="R"><use transform="matrix(0.009765625,0,0,0.009765625,0,0)" xlink:href="#aB"/><use transform="matrix(0.009765625,0,0,0.009765625,9.794921875,0)" xlink:href="#aw"/><use transform="matrix(0.009765625,0,0,0.009765625,20.78125,0)" xlink:href="#aL"/><use transform="matrix(0.009765625,0,0,0.009765625,24.248046875,0)" xlink:href="#aL"/></g><path d="M132 24c-76-289-76-715 0-1004 58-221 148-346 273-375v109c-131 55-197 311-197 768s66 713 197 768v109C280 370 190 245 132 24" id="aU"/><path d="M182 0C123 0 72-49 72-109c0-61 49-111 110-111s109 50 109 111C291-49 242 0 182 0" id="aV"/><g id="S"><use transform="matrix(0.009765625,0,0,0.009765625,0,0)" xlink:href="#aU"/><use transform="matrix(0.009765625,0,0,0.009765625,4.736328125,0)" xlink:href="#ar"/><use transform="matrix(0.009765625,0,0,0.009765625,8.642578125,0)" xlink:href="#aV"/><use transform="matrix(0.009765625,0,0,0.009765625,12.451171875,0)" xlink:href="#aw"/><use transform="matrix(0.009765625,0,0,0.009765625,23.4375,0)" xlink:href="#aV"/></g><g id="T"><use transform="matrix(0.009765625,0,0,0.009765625,0,0)" xlink:href="#aH"/><use transform="matrix(0.009765625,0,0,0.009765625,10.263671875,0)" xlink:href="#aq"/><use transform="matrix(0.009765625,0,0,0.009765625,20.205078125,0)" xlink:href="#aG"/><use transform="matrix(0.009765625,0,0,0.009765625,26.181640625,0)" xlink:href="#aB"/><use transform="matrix(0.009765625,0,0,0.009765625,35.9765625,0)" xlink:href="#aM"/></g><path d="M329-978c76 289 76 715 0 1004-58 221-148 346-273 375V292c131-55 197-311 197-768s-66-713-197-768v-109c125 29 215 154 273 375" id="aW"/><g id="U"><use transform="matrix(0.009765625,0,0,0.009765625,0,0)" xlink:href="#aP"/><use transform="matrix(0.009765625,0,0,0.009765625,10.7421875,0)" xlink:href="#aL"/><use transform="matrix(0.009765625,0,0,0.009765625,14.208984375,0)" xlink:href="#aE"/><use transform="matrix(0.009765625,0,0,0.009765625,25.1953125,0)" xlink:href="#aJ"/><use transform="matrix(0.009765625,0,0,0.009765625,34.970703125,0)" xlink:href="#aw"/><use transform="matrix(0.009765625,0,0,0.009765625,45.95703125,0)" xlink:href="#aB"/><use transform="matrix(0.009765625,0,0,0.009765625,55.751953125,0)" xlink:href="#aW"/></g><g id="V"><use transform="matrix(0.009765625,0,0,0.009765625,0,0)" xlink:href="#aq"/><use transform="matrix(0.009765625,0,0,0.009765625,9.94140625,0)" xlink:href="#aG"/></g><g id="W"><use transform="matrix(0.009765625,0,0,0.009765625,0,0)" xlink:href="#aB"/><use transform="matrix(0.009765625,0,0,0.009765625,9.794921875,0)" xlink:href="#aG"/><use transform="matrix(0.009765625,0,0,0.009765625,15.771484375,0)" xlink:href="#aq"/><use transform="matrix(0.009765625,0,0,0.009765625,26.181640625,0)" xlink:href="#aA"/><use transform="matrix(0.009765625,0,0,0.009765625,37.05078125,0)" xlink:href="#ar"/><use transform="matrix(0.009765625,0,0,0.009765625,40.95703125,0)" xlink:href="#aF"/><use transform="matrix(0.009765625,0,0,0.009765625,51.11328125,0)" xlink:href="#av"/></g><g id="X"><use transform="matrix(0.009765625,0,0,0.009765625,0,0)" xlink:href="#aH"/><use transform="matrix(0.009765625,0,0,0.009765625,10.263671875,0)" xlink:href="#ar"/><use transform="matrix(0.009765625,0,0,0.009765625,14.169921875,0)" xlink:href="#aP"/><use transform="matrix(0.009765625,0,0,0.009765625,24.912109375,0)" xlink:href="#aH"/></g><path d="M209-478c0 191 154 370 342 370 187 0 348-181 348-370S737-849 551-849c-188 0-342 180-342 371zm820 0c0 258-224 500-478 500-147 0-262-65-347-196v573H74V-957h130v174c85-131 200-196 347-196 256 0 478 244 478 501" id="aX"/><g id="Y"><use transform="matrix(0.009765625,0,0,0.009765625,0,0)" xlink:href="#aX"/><use transform="matrix(0.009765625,0,0,0.009765625,10.869140625,0)" xlink:href="#az"/><use transform="matrix(0.009765625,0,0,0.009765625,19.23828125,0)" xlink:href="#ar"/><use transform="matrix(0.009765625,0,0,0.009765625,23.14453125,0)" xlink:href="#aK"/><use transform="matrix(0.009765625,0,0,0.009765625,33.73046875,0)" xlink:href="#aw"/><use transform="matrix(0.009765625,0,0,0.009765625,44.716796875,0)" xlink:href="#aA"/><use transform="matrix(0.009765625,0,0,0.009765625,55.5859375,0)" xlink:href="#aV"/></g><g id="Z"><use transform="matrix(0.009765625,0,0,0.009765625,0,0)" xlink:href="#aR"/><use transform="matrix(0.009765625,0,0,0.009765625,8.896484375,0)" xlink:href="#aE"/><use transform="matrix(0.009765625,0,0,0.009765625,18.9453125,0)" xlink:href="#aN"/></g><path d="M72-660h523v130H72v-130" id="aY"/><g id="aa"><use transform="matrix(0.009765625,0,0,0.009765625,0,0)" xlink:href="#aT"/><use transform="matrix(0.009765625,0,0,0.009765625,10.3515625,0)" xlink:href="#az"/><use transform="matrix(0.009765625,0,0,0.009765625,17.939453125,0)" xlink:href="#aw"/><use transform="matrix(0.009765625,0,0,0.009765625,28.92578125,0)" xlink:href="#aY"/><use transform="matrix(0.009765625,0,0,0.009765625,35.849609375,0)" xlink:href="#aP"/><use transform="matrix(0.009765625,0,0,0.009765625,46.591796875,0)" xlink:href="#aq"/><use transform="matrix(0.009765625,0,0,0.009765625,57.001953125,0)" xlink:href="#av"/><use transform="matrix(0.009765625,0,0,0.009765625,72.109375,0)" xlink:href="#aw"/></g><path d="M695-649l-152-510-156 510h308zM888 0L732-517H348L192 0H57l406-1355h160L1029 0H888" id="aZ"/><g id="ab"><use transform="matrix(0.009765625,0,0,0.009765625,0,0)" xlink:href="#aZ"/><use transform="matrix(0.009765625,0,0,0.009765625,11.23046875,0)" xlink:href="#aK"/><use transform="matrix(0.009765625,0,0,0.009765625,21.81640625,0)" xlink:href="#aG"/><use transform="matrix(0.009765625,0,0,0.009765625,27.79296875,0)" xlink:href="#ar"/><use transform="matrix(0.009765625,0,0,0.009765625,31.69921875,0)" xlink:href="#aJ"/><use transform="matrix(0.009765625,0,0,0.009765625,42.255859375,0)" xlink:href="#ar"/><use transform="matrix(0.009765625,0,0,0.009765625,46.162109375,0)" xlink:href="#aG"/><use transform="matrix(0.009765625,0,0,0.009765625,52.138671875,0)" xlink:href="#ar"/><use transform="matrix(0.009765625,0,0,0.009765625,56.044921875,0)" xlink:href="#aw"/><use transform="matrix(0.009765625,0,0,0.009765625,67.03125,0)" xlink:href="#aB"/></g><path d="M558-1225V0H428v-1225H21v-130h954v130H558" id="ba"/><path d="M540-1249c-205 0-353 174-353 382v377c-5 208 148 382 353 382s353-174 353-382v-377c5-208-148-382-353-382zm0-130c272 0 483 251 483 528v345c8 277-211 528-483 528S57-229 57-506v-345c-8-277 211-528 483-528" id="bb"/><g id="ac"><use transform="matrix(0.009765625,0,0,0.009765625,0,0)" xlink:href="#ba"/><use transform="matrix(0.009765625,0,0,0.009765625,10.3515625,0)" xlink:href="#aF"/><use transform="matrix(0.009765625,0,0,0.009765625,20.5078125,0)" xlink:href="#az"/><use transform="matrix(0.009765625,0,0,0.009765625,29.423828125,0)" xlink:href="#as"/><use transform="matrix(0.009765625,0,0,0.009765625,40.33203125,0)" xlink:href="#aY"/><use transform="matrix(0.009765625,0,0,0.009765625,47.255859375,0)" xlink:href="#bb"/><use transform="matrix(0.009765625,0,0,0.009765625,58.310546875,0)" xlink:href="#aF"/><use transform="matrix(0.009765625,0,0,0.009765625,68.466796875,0)" xlink:href="#aG"/></g><g id="ad"><use transform="matrix(0.009765625,0,0,0.009765625,0,0)" xlink:href="#aX"/><use transform="matrix(0.009765625,0,0,0.009765625,10.869140625,0)" xlink:href="#aw"/><use transform="matrix(0.009765625,0,0,0.009765625,21.85546875,0)" xlink:href="#aE"/><use transform="matrix(0.009765625,0,0,0.009765625,32.841796875,0)" xlink:href="#aX"/><use transform="matrix(0.009765625,0,0,0.009765625,43.7109375,0)" xlink:href="#aL"/><use transform="matrix(0.009765625,0,0,0.009765625,47.177734375,0)" xlink:href="#aw"/></g><g id="ae"><use transform="matrix(0.009765625,0,0,0.009765625,0,0)" xlink:href="#aN"/><use transform="matrix(0.009765625,0,0,0.009765625,14.052734375,0)" xlink:href="#ar"/><use transform="matrix(0.009765625,0,0,0.009765625,17.958984375,0)" xlink:href="#aL"/><use transform="matrix(0.009765625,0,0,0.009765625,21.42578125,0)" xlink:href="#aL"/></g><g id="af"><use transform="matrix(0.009765625,0,0,0.009765625,0,0)" xlink:href="#aE"/><use transform="matrix(0.009765625,0,0,0.009765625,10.986328125,0)" xlink:href="#aX"/><use transform="matrix(0.009765625,0,0,0.009765625,21.85546875,0)" xlink:href="#aG"/></g><g id="ag"><use transform="matrix(0.009765625,0,0,0.009765625,0,0)" xlink:href="#aE"/><use transform="matrix(0.009765625,0,0,0.009765625,10.986328125,0)" xlink:href="#aF"/><use transform="matrix(0.009765625,0,0,0.009765625,21.142578125,0)" xlink:href="#aG"/></g><g id="ah"><use transform="matrix(0.009765625,0,0,0.009765625,0,0)" xlink:href="#aX"/><use transform="matrix(0.009765625,0,0,0.009765625,10.869140625,0)" xlink:href="#aq"/><use transform="matrix(0.009765625,0,0,0.009765625,21.279296875,0)" xlink:href="#az"/><use transform="matrix(0.009765625,0,0,0.009765625,29.6484375,0)" xlink:href="#aG"/><use transform="matrix(0.009765625,0,0,0.009765625,35.625,0)" xlink:href="#aq"/><use transform="matrix(0.009765625,0,0,0.009765625,46.03515625,0)" xlink:href="#aS"/><use transform="matrix(0.009765625,0,0,0.009765625,54.27734375,0)" xlink:href="#ar"/><use transform="matrix(0.009765625,0,0,0.009765625,58.18359375,0)" xlink:href="#as"/><use transform="matrix(0.009765625,0,0,0.009765625,69.091796875,0)" xlink:href="#aP"/></g><g id="ai"><use transform="matrix(0.009765625,0,0,0.009765625,0,0)" xlink:href="#ar"/><use transform="matrix(0.009765625,0,0,0.009765625,3.90625,0)" xlink:href="#as"/></g><g id="aj"><use transform="matrix(0.009765625,0,0,0.009765625,0,0)" xlink:href="#aX"/><use transform="matrix(0.009765625,0,0,0.009765625,10.869140625,0)" xlink:href="#az"/><use transform="matrix(0.009765625,0,0,0.009765625,18.45703125,0)" xlink:href="#aw"/><use transform="matrix(0.009765625,0,0,0.009765625,29.443359375,0)" xlink:href="#aP"/><use transform="matrix(0.009765625,0,0,0.009765625,40.185546875,0)" xlink:href="#aq"/><use transform="matrix(0.009765625,0,0,0.009765625,50.595703125,0)" xlink:href="#av"/><use transform="matrix(0.009765625,0,0,0.009765625,65.703125,0)" xlink:href="#aw"/></g><g id="ak"><use transform="matrix(0.009765625,0,0,0.009765625,0,0)" xlink:href="#aq"/><use transform="matrix(0.009765625,0,0,0.009765625,10.41015625,0)" xlink:href="#aK"/><use transform="matrix(0.009765625,0,0,0.009765625,20.99609375,0)" xlink:href="#aG"/><use transform="matrix(0.009765625,0,0,0.009765625,26.97265625,0)" xlink:href="#ar"/><use transform="matrix(0.009765625,0,0,0.009765625,30.87890625,0)" xlink:href="#aJ"/><use transform="matrix(0.009765625,0,0,0.009765625,41.435546875,0)" xlink:href="#ar"/><use transform="matrix(0.009765625,0,0,0.009765625,45.341796875,0)" xlink:href="#aG"/><use transform="matrix(0.009765625,0,0,0.009765625,51.318359375,0)" xlink:href="#ar"/><use transform="matrix(0.009765625,0,0,0.009765625,55.224609375,0)" xlink:href="#aw"/><use transform="matrix(0.009765625,0,0,0.009765625,66.2109375,0)" xlink:href="#aB"/></g><g id="al"><use transform="matrix(0.009765625,0,0,0.009765625,0,0)" xlink:href="#aA"/><use transform="matrix(0.009765625,0,0,0.009765625,10.869140625,0)" xlink:href="#aw"/><use transform="matrix(0.009765625,0,0,0.009765625,21.85546875,0)" xlink:href="#aX"/><use transform="matrix(0.009765625,0,0,0.009765625,32.724609375,0)" xlink:href="#aw"/><use transform="matrix(0.009765625,0,0,0.009765625,43.7109375,0)" xlink:href="#as"/><use transform="matrix(0.009765625,0,0,0.009765625,54.619140625,0)" xlink:href="#aA"/><use transform="matrix(0.009765625,0,0,0.009765625,65.48828125,0)" xlink:href="#ar"/><use transform="matrix(0.009765625,0,0,0.009765625,69.39453125,0)" xlink:href="#as"/><use transform="matrix(0.009765625,0,0,0.009765625,80.302734375,0)" xlink:href="#aP"/></g><g id="am"><use transform="matrix(0.009765625,0,0,0.009765625,0,0)" xlink:href="#aN"/><use transform="matrix(0.009765625,0,0,0.009765625,14.052734375,0)" xlink:href="#aw"/><use transform="matrix(0.009765625,0,0,0.009765625,25.0390625,0)" xlink:href="#aq"/><use transform="matrix(0.009765625,0,0,0.009765625,34.98046875,0)" xlink:href="#aG"/><use transform="matrix(0.009765625,0,0,0.009765625,40.95703125,0)" xlink:href="#aH"/><use transform="matrix(0.009765625,0,0,0.009765625,51.357421875,0)" xlink:href="#aw"/><use transform="matrix(0.009765625,0,0,0.009765625,62.34375,0)" xlink:href="#az"/><use transform="matrix(0.009765625,0,0,0.009765625,70.712890625,0)" xlink:href="#aV"/></g><path fill="#c92d39" d="M49-130h171v-1096H49v-129h479v129H352v1096h176V0H49v-130" id="bc"/><path fill="#c92d39" d="M545-849c-196 0-341 171-341 371V0H74v-957h130v174c77-131 190-196 341-196 285 0 449 200 449 493V0H862v-478c2-219-106-371-317-371" id="bd"/><path fill="#c92d39" d="M406 0C279 4 176-105 176-232v-595H26v-130c75 0 120-17 137-51 9-17 13-69 13-155h130v206h241v130H306v595c0 70 49 105 146 105 18 0 78-3 95-3V0H406" id="be"/><path fill="#c92d39" d="M52-478c0-256 228-501 485-501 264 0 489 248 480 516H180c0 180 174 355 357 355 148 0 301-110 347-219l130 23C955-140 749 17 537 22 280 28 52-222 52-478zm815-115c-38-129-172-257-330-256-158 0-295 130-340 256h670" id="bf"/><path fill="#c92d39" d="M550-827c-191 0-346 159-346 349V0H72v-957h132v174c85-116 198-174 339-174h204v174c-69-29-134-44-197-44" id="bg"/><path fill="#c92d39" d="M178-957l334 813 331-813h142L595 0H424L33-957h145" id="bh"/><path fill="#c92d39" d="M240-1205c-40 0-79-36-79-76s39-76 79-76c41 0 78 35 78 76s-37 76-78 76zM47-957h257V0H174v-827H47v-130" id="bi"/><path fill="#c92d39" d="M395 0L60-957h137l259 739 167-476-93-263h137l262 744 258-744h138L991 0H866L692-498 516 0H395" id="bj"/><g id="an"><use transform="matrix(0.01193576388888889,0,0,0.01193576388888889,0,0)" xlink:href="#bc"/><use transform="matrix(0.01193576388888889,0,0,0.01193576388888889,7.304687500000001,0)" xlink:href="#bd"/><use transform="matrix(0.01193576388888889,0,0,0.01193576388888889,20.63693576388889,0)" xlink:href="#be"/><use transform="matrix(0.01193576388888889,0,0,0.01193576388888889,27.941623263888893,0)" xlink:href="#bf"/><use transform="matrix(0.01193576388888889,0,0,0.01193576388888889,41.36935763888889,0)" xlink:href="#bg"/><use transform="matrix(0.01193576388888889,0,0,0.01193576388888889,51.59830729166667,0)" xlink:href="#bh"/><use transform="matrix(0.01193576388888889,0,0,0.01193576388888889,64.50086805555556,0)" xlink:href="#bi"/><use transform="matrix(0.01193576388888889,0,0,0.01193576388888889,69.27517361111111,0)" xlink:href="#bf"/><use transform="matrix(0.01193576388888889,0,0,0.01193576388888889,82.12999131944444,0)" xlink:href="#bj"/></g><path fill="#c92d39" d="M865-1355v130H204v424h531v134H204V0H74v-1355h791" id="bk"/><path fill="#c92d39" d="M-2-478c0-256 249-501 505-501 147 0 261 65 343 196v-572h132V0H846v-174C761-43 645 22 498 22 243 22-2-223-2-478zm843 0c0-191-151-371-338-371S128-665 128-478s183 370 370 370c188 0 343-180 343-370" id="bl"/><path fill="#c92d39" d="M177-478c0 192 146 370 333 370s324-179 324-370c0-193-136-371-324-371-187 0-333 180-333 371zm332 742c191 3 334-157 330-347v-91C756-43 647 22 510 22 246 22 47-209 47-478c0-259 208-501 463-501 140 0 250 67 329 201v-179h130v888c6 260-201 463-461 463C272 394 95 221 61 14L188-7c30 151 149 268 321 271" id="bm"/><path fill="#c92d39" d="M898-260C898-89 674 20 489 20 280 20 75-78 57-254l126-27c2 114 176 171 313 171 113 0 265-50 265-150 0-60-40-102-120-127-21-6-104-22-252-42-166-23-242-71-302-158-134-339 365-481 654-327 94 50 148 120 161 213l-126 27c-25-116-134-174-329-174-116 0-251 47-251 149 0 73 54 127 164 147 83 15 168 18 253 29 83 11 158 46 225 101 40 33 60 87 60 162" id="bn"/><g id="ao"><use transform="matrix(0.01193576388888889,0,0,0.01193576388888889,0,0)" xlink:href="#bk"/><use transform="matrix(0.01193576388888889,0,0,0.01193576388888889,11.016710069444445,0)" xlink:href="#bi"/><use transform="matrix(0.01193576388888889,0,0,0.01193576388888889,15.791015625000002,0)" xlink:href="#bd"/><use transform="matrix(0.01193576388888889,0,0,0.01193576388888889,29.123263888888893,0)" xlink:href="#bl"/><use transform="matrix(0.01193576388888889,0,0,0.01193576388888889,42.40776909722222,0)" xlink:href="#bi"/><use transform="matrix(0.01193576388888889,0,0,0.01193576388888889,47.18207465277778,0)" xlink:href="#bd"/><use transform="matrix(0.01193576388888889,0,0,0.01193576388888889,60.51432291666667,0)" xlink:href="#bm"/><use transform="matrix(0.01193576388888889,0,0,0.01193576388888889,73.64366319444446,0)" xlink:href="#bn"/></g></defs></g></svg>