<svg xmlns="http://www.w3.org/2000/svg" xmlns:xlink="http://www.w3.org/1999/xlink" xmlns:lucid="lucid" width="940" height="476"><g transform="translate(-260 -227)" lucid:page-tab-id="yF1kf33DRu96"><path d="M280 300h410v131H280zM690 300h490v131H690z" fill="#fff" fill-opacity=".9"/><path d="M280 431h410v121H280zM690 431h490v121H690z" fill-opacity="0"/><path d="M280 552h410v131H280zM690 552h490v131H690z" fill="#fff" fill-opacity=".9"/><path d="M280 300v131M690 300v131M1180 300v131M280 431v121M690 431v121M1180 431v121M280 552v131M690 552v131M1180 552v131M280 300h410M690 300h490M280 431h410M690 431h490M280 552h410M280 683h410M690 552h490M690 683h490" stroke="#000" fill="none"/><use xlink:href="#a" transform="matrix(1,0,0,1,285,305) translate(0 16.4904888671875)"/><use xlink:href="#b" transform="matrix(1,0,0,1,285,305) translate(54 16.4904888671875)"/><use xlink:href="#c" transform="matrix(1,0,0,1,285,305) translate(108.9523818359375 16.4904888671875)"/><use xlink:href="#d" transform="matrix(1,0,0,1,285,305) translate(158.901280078125 16.4904888671875)"/><use xlink:href="#e" transform="matrix(1,0,0,1,285,305) translate(229.02643945312502 16.4904888671875)"/><use xlink:href="#f" transform="matrix(1,0,0,1,285,305) translate(281.620308984375 16.4904888671875)"/><use xlink:href="#g" transform="matrix(1,0,0,1,695,305) translate(0 16.4904888671875)"/><use xlink:href="#h" transform="matrix(1,0,0,1,695,305) translate(63.27878964843751 16.4904888671875)"/><use xlink:href="#i" transform="matrix(1,0,0,1,695,305) translate(98.53234199218751 16.4904888671875)"/><use xlink:href="#j" transform="matrix(1,0,0,1,695,305) translate(196.94055175781253 16.4904888671875)"/><use xlink:href="#k" transform="matrix(1,0,0,1,695,305) translate(251.41550195312504 16.4904888671875)"/><use xlink:href="#l" transform="matrix(1,0,0,1,695,305) translate(326.4964017578126 16.4904888671875)"/><use xlink:href="#m" transform="matrix(1,0,0,1,695,305) translate(372.1675125000001 16.4904888671875)"/><use xlink:href="#n" transform="matrix(1,0,0,1,695,305) translate(427.1198943359376 16.4904888671875)"/><use xlink:href="#o" transform="matrix(1,0,0,1,695,305) translate(0 36.84817402343751)"/><use xlink:href="#p" transform="matrix(1,0,0,1,695,305) translate(28.321244921875007 36.84817402343751)"/><use xlink:href="#q" transform="matrix(1,0,0,1,695,305) translate(81.43074062500001 36.84817402343751)"/><use xlink:href="#r" transform="matrix(1,0,0,1,695,305) translate(119.08099980468751 36.84817402343751)"/><use xlink:href="#s" transform="matrix(1,0,0,1,695,305) translate(178.07245332031252 36.84817402343751)"/><use xlink:href="#t" transform="matrix(1,0,0,1,695,305) translate(221.70970527343752 36.84817402343751)"/><use xlink:href="#u" transform="matrix(1,0,0,1,695,305) translate(301.55537285156254 36.84817402343751)"/><use xlink:href="#v" transform="matrix(1,0,0,1,695,305) translate(332.02506015625005 36.84817402343751)"/><use xlink:href="#w" transform="matrix(1,0,0,1,695,305) translate(365.693539453125 36.84817402343751)"/><use xlink:href="#x" transform="matrix(1,0,0,1,695,305) translate(0 57.20585917968751)"/><use xlink:href="#y" transform="matrix(1,0,0,1,695,305) translate(122.79541796875002 57.20585917968751)"/><use xlink:href="#z" transform="matrix(1,0,0,1,695,305) translate(201.97268125000002 57.20585917968751)"/><use xlink:href="#t" transform="matrix(1,0,0,1,695,305) translate(236.13768945312503 57.20585917968751)"/><use xlink:href="#A" transform="matrix(1,0,0,1,695,305) translate(315.98335703125 57.20585917968751)"/><use xlink:href="#B" transform="matrix(1,0,0,1,695,305) translate(435.05480820312505 57.20585917968751)"/><use xlink:href="#v" transform="matrix(1,0,0,1,695,305) translate(0 77.56354433593751)"/><use xlink:href="#C" transform="matrix(1,0,0,1,695,305) translate(33.668479296875006 77.56354433593751)"/><use xlink:href="#D" transform="matrix(1,0,0,1,695,305) translate(109.72333964843752 77.56354433593751)"/><use xlink:href="#E" transform="matrix(1,0,0,1,695,305) translate(151.51770546875002 77.56354433593751)"/><use xlink:href="#v" transform="matrix(1,0,0,1,695,305) translate(201.41886054687504 77.56354433593751)"/><use xlink:href="#p" transform="matrix(1,0,0,1,695,305) translate(235.08733984375004 77.56354433593751)"/><use xlink:href="#q" transform="matrix(1,0,0,1,695,305) translate(288.19683554687504 77.56354433593751)"/><use xlink:href="#F" transform="matrix(1,0,0,1,695,305) translate(325.84709472656255 77.56354433593751)"/><use xlink:href="#z" transform="matrix(1,0,0,1,695,305) translate(429.3447257812501 77.56354433593751)"/><use xlink:href="#G" transform="matrix(1,0,0,1,695,305) translate(463.5097339843751 77.56354433593751)"/><use xlink:href="#H" transform="matrix(1,0,0,1,695,305) translate(0 97.9212294921875)"/><use xlink:href="#I" transform="matrix(1,0,0,1,695,305) translate(78.1173650390625 97.9212294921875)"/><g><use xlink:href="#J" transform="matrix(1,0,0,1,285,436) translate(0 17.06666666666667)"/><use xlink:href="#K" transform="matrix(1,0,0,1,285,436) translate(49.857566550925924 17.06666666666667)"/><use xlink:href="#e" transform="matrix(1,0,0,1,285,436) translate(119.04695991030093 17.06666666666667)"/><use xlink:href="#L" transform="matrix(1,0,0,1,285,436) translate(171.64082944155092 17.06666666666667)"/><use xlink:href="#M" transform="matrix(1,0,0,1,285,436) translate(209.13831049623843 17.06666666666667)"/><use xlink:href="#u" transform="matrix(1,0,0,1,285,436) translate(306.37203842592595 17.06666666666667)"/><use xlink:href="#N" transform="matrix(1,0,0,1,285,436) translate(336.84172573061346 17.06666666666667)"/></g><g><use xlink:href="#O" transform="matrix(1,0,0,1,695,436) translate(0 16.4904888671875)"/><use xlink:href="#P" transform="matrix(1,0,0,1,695,436) translate(70.8795013671875 16.4904888671875)"/><use xlink:href="#Q" transform="matrix(1,0,0,1,695,436) translate(139.276358203125 16.4904888671875)"/><use xlink:href="#R" transform="matrix(1,0,0,1,695,436) translate(159.5863001953125 16.4904888671875)"/><use xlink:href="#v" transform="matrix(1,0,0,1,695,436) translate(220.2296671875 16.4904888671875)"/><use xlink:href="#S" transform="matrix(1,0,0,1,695,436) translate(253.89814648437502 16.4904888671875)"/><use xlink:href="#T" transform="matrix(1,0,0,1,695,436) translate(322.0849333984375 16.4904888671875)"/><use xlink:href="#U" transform="matrix(1,0,0,1,695,436) translate(360.4704373046875 16.4904888671875)"/><use xlink:href="#V" transform="matrix(1,0,0,1,695,436) translate(429.7171224609375 16.4904888671875)"/><use xlink:href="#W" transform="matrix(1,0,0,1,695,436) translate(0 36.84817402343751)"/><use xlink:href="#v" transform="matrix(1,0,0,1,695,436) translate(22.286508984375004 36.84817402343751)"/><use xlink:href="#X" transform="matrix(1,0,0,1,695,436) translate(55.95498828125001 36.84817402343751)"/><use xlink:href="#Y" transform="matrix(1,0,0,1,695,436) translate(106.23808867187502 36.84817402343751)"/><use xlink:href="#Z" transform="matrix(1,0,0,1,695,436) translate(156.25382734375003 36.84817402343751)"/><use xlink:href="#Q" transform="matrix(1,0,0,1,695,436) translate(172.83025390625005 36.84817402343751)"/><use xlink:href="#aa" transform="matrix(1,0,0,1,695,436) translate(193.14019589843755 36.84817402343751)"/><use xlink:href="#ab" transform="matrix(1,0,0,1,695,436) translate(280.72980468750006 36.84817402343751)"/><use xlink:href="#ac" transform="matrix(1,0,0,1,695,436) translate(319.08666269531255 36.84817402343751)"/><use xlink:href="#p" transform="matrix(1,0,0,1,695,436) translate(395.8290246093751 36.84817402343751)"/><use xlink:href="#ad" transform="matrix(1,0,0,1,695,436) translate(448.9385203125001 36.84817402343751)"/><use xlink:href="#Q" transform="matrix(1,0,0,1,695,436) translate(0 57.20585917968751)"/><use xlink:href="#ae" transform="matrix(1,0,0,1,695,436) translate(20.309941992187504 57.20585917968751)"/><use xlink:href="#af" transform="matrix(1,0,0,1,695,436) translate(48.06781757812501 57.20585917968751)"/><use xlink:href="#ag" transform="matrix(1,0,0,1,695,436) translate(136.8605541015625 57.20585917968751)"/><use xlink:href="#ah" transform="matrix(1,0,0,1,695,436) translate(179.64797773437502 57.20585917968751)"/><use xlink:href="#ai" transform="matrix(1,0,0,1,695,436) translate(220.11508359375003 57.20585917968751)"/><use xlink:href="#aj" transform="matrix(1,0,0,1,695,436) translate(251.36775878906252 57.20585917968751)"/><use xlink:href="#ak" transform="matrix(1,0,0,1,695,436) translate(285.370440234375 57.20585917968751)"/><use xlink:href="#al" transform="matrix(1,0,0,1,695,436) translate(349.155307421875 57.20585917968751)"/><use xlink:href="#am" transform="matrix(1,0,0,1,695,436) translate(372.65449277343754 57.20585917968751)"/><use xlink:href="#an" transform="matrix(1,0,0,1,695,436) translate(432.8872685546875 57.20585917968751)"/><use xlink:href="#ao" transform="matrix(1,0,0,1,695,436) translate(0 77.56354433593751)"/><use xlink:href="#ap" transform="matrix(1,0,0,1,695,436) translate(50.58865664062501 77.56354433593751)"/><use xlink:href="#aq" transform="matrix(1,0,0,1,695,436) translate(113.27543105468752 77.56354433593751)"/><use xlink:href="#v" transform="matrix(1,0,0,1,695,436) translate(134.67391718750002 77.56354433593751)"/><use xlink:href="#ar" transform="matrix(1,0,0,1,695,436) translate(168.34239648437503 77.56354433593751)"/></g><g><use xlink:href="#as" transform="matrix(1,0,0,1,285,557) translate(0 17.989583333333336)"/><use xlink:href="#at" transform="matrix(1,0,0,1,285,557) translate(43.868308738425924 17.989583333333336)"/><use xlink:href="#W" transform="matrix(1,0,0,1,285,557) translate(124.70703412905094 17.989583333333336)"/><use xlink:href="#au" transform="matrix(1,0,0,1,285,557) translate(146.99354311342594 17.989583333333336)"/><use xlink:href="#av" transform="matrix(1,0,0,1,285,557) translate(206.58656049623846 17.989583333333336)"/><use xlink:href="#u" transform="matrix(1,0,0,1,285,557) translate(280.65530522280096 17.989583333333336)"/><use xlink:href="#aw" transform="matrix(1,0,0,1,285,557) translate(311.1249925274885 17.989583333333336)"/></g><g><use xlink:href="#ax" transform="matrix(1,0,0,1,695,557) translate(0 16.4904888671875)"/><use xlink:href="#ay" transform="matrix(1,0,0,1,695,557) translate(52.22147285156251 16.4904888671875)"/><use xlink:href="#az" transform="matrix(1,0,0,1,695,557) translate(90.33006640625001 16.4904888671875)"/><use xlink:href="#aA" transform="matrix(1,0,0,1,695,557) translate(132.172175390625 16.4904888671875)"/><use xlink:href="#aB" transform="matrix(1,0,0,1,695,557) translate(207.83554179687502 16.4904888671875)"/><use xlink:href="#aC" transform="matrix(1,0,0,1,695,557) translate(257.13513300781256 16.4904888671875)"/><use xlink:href="#aD" transform="matrix(1,0,0,1,695,557) translate(329.0076921875001 16.4904888671875)"/><use xlink:href="#Q" transform="matrix(1,0,0,1,695,557) translate(347.6084289062501 16.4904888671875)"/><use xlink:href="#aE" transform="matrix(1,0,0,1,695,557) translate(367.9183708984376 16.4904888671875)"/><use xlink:href="#ab" transform="matrix(1,0,0,1,695,557) translate(0 36.84817402343751)"/><use xlink:href="#aF" transform="matrix(1,0,0,1,695,557) translate(38.356858007812505 36.84817402343751)"/><use xlink:href="#h" transform="matrix(1,0,0,1,695,557) translate(89.41339765625001 36.84817402343751)"/><use xlink:href="#aG" transform="matrix(1,0,0,1,695,557) translate(124.66695000000001 36.84817402343751)"/><use xlink:href="#aH" transform="matrix(1,0,0,1,695,557) translate(169.068092578125 36.84817402343751)"/><use xlink:href="#T" transform="matrix(1,0,0,1,695,557) translate(228.51788046875 36.84817402343751)"/><use xlink:href="#aI" transform="matrix(1,0,0,1,695,557) translate(266.90338437500003 36.84817402343751)"/><use xlink:href="#aJ" transform="matrix(1,0,0,1,695,557) translate(409.76047988281255 36.84817402343751)"/><use xlink:href="#ay" transform="matrix(1,0,0,1,695,557) translate(0 57.20585917968751)"/><use xlink:href="#aK" transform="matrix(1,0,0,1,695,557) translate(38.10859355468751 57.20585917968751)"/><use xlink:href="#aL" transform="matrix(1,0,0,1,695,557) translate(66.63035976562502 57.20585917968751)"/><use xlink:href="#al" transform="matrix(1,0,0,1,695,557) translate(126.42389843750001 57.20585917968751)"/><use xlink:href="#aA" transform="matrix(1,0,0,1,695,557) translate(149.9230837890625 57.20585917968751)"/><use xlink:href="#aM" transform="matrix(1,0,0,1,695,557) translate(225.58645019531252 57.20585917968751)"/><use xlink:href="#aN" transform="matrix(1,0,0,1,695,557) translate(284.01453437500004 57.20585917968751)"/><use xlink:href="#aO" transform="matrix(1,0,0,1,695,557) translate(372.74043046875005 57.20585917968751)"/><use xlink:href="#aP" transform="matrix(1,0,0,1,695,557) translate(0 79.06263880208334)"/><use xlink:href="#Z" transform="matrix(1,0,0,1,695,557) translate(52.231021484375006 79.06263880208334)"/><use xlink:href="#aQ" transform="matrix(1,0,0,1,695,557) translate(68.80744804687501 79.06263880208334)"/></g><path d="M280 247h900v53H280z" fill-opacity="0"/><path d="M280 247v53M1180 247v53M280 247h900M280 300h900" stroke="#333" fill="none"/><g><use xlink:href="#aR" transform="matrix(1,0,0,1,285,252) translate(0 20.613064236111114)"/><use xlink:href="#aS" transform="matrix(1,0,0,1,285,252) translate(135.25607638888889 20.613064236111114)"/><use xlink:href="#aT" transform="matrix(1,0,0,1,285,252) translate(229.51280381944446 20.613064236111114)"/><use xlink:href="#aU" transform="matrix(1,0,0,1,285,252) translate(249.8752170138889 20.613064236111114)"/></g><defs><path d="M53-760v-98c81 0 124-33 128-99h90v827h70V0H53v-130h88v-630H53" id="aV"/><path d="M182 0C123 0 72-49 72-109c0-61 49-111 110-111s109 50 109 111C291-49 242 0 182 0" id="aW"/><g id="a"><use transform="matrix(0.009548632812500001,0,0,0.009548632812500001,0,0)" xlink:href="#aV"/><use transform="matrix(0.009548632812500001,0,0,0.009548632812500001,3.9722312500000005,0)" xlink:href="#aW"/></g><path d="M204-1355v708h570v-708h130V0H774v-517H204V0H74v-1355h130" id="aX"/><path d="M483-108c191 0 291-169 291-370v-479h130V0H774v-137C701-31 604 22 483 22 219 22 67-183 67-456v-501h130v501c-4 182 112 348 286 348" id="aY"/><path d="M898-260C898-89 674 20 489 20 280 20 75-78 57-254l126-27c2 114 176 171 313 171 113 0 265-50 265-150 0-60-40-102-120-127-21-6-104-22-252-42-166-23-242-71-302-158-134-339 365-481 654-327 94 50 148 120 161 213l-126 27c-25-116-134-174-329-174-116 0-251 47-251 149 0 73 54 127 164 147 83 15 168 18 253 29 83 11 158 46 225 101 40 33 60 87 60 162" id="aZ"/><path d="M204-656l437-331 87 99-330 254L782 0H626L289-554l-85 65V0H72v-1355h132v699" id="ba"/><path d="M253 269c88 1 142-24 163-75L519-65 33-957h148l400 735 292-735h140L555 194c-58 142-154 210-302 205V269" id="bb"/><g id="b"><use transform="matrix(0.009548632812500001,0,0,0.009548632812500001,0,0)" xlink:href="#aX"/><use transform="matrix(0.009548632812500001,0,0,0.009548632812500001,9.930578125,0)" xlink:href="#aY"/><use transform="matrix(0.009548632812500001,0,0,0.009548632812500001,19.86115625,0)" xlink:href="#aZ"/><use transform="matrix(0.009548632812500001,0,0,0.009548632812500001,29.4384349609375,0)" xlink:href="#ba"/><use transform="matrix(0.009548632812500001,0,0,0.009548632812500001,37.4974810546875,0)" xlink:href="#bb"/></g><path d="M892-988c1-180-155-261-350-261-239 0-359 83-359 250 0 109 72 186 218 225 134 36 273 57 404 101 148 49 217 165 217 318 0 218-259 377-488 377C285 22 54-135 53-369h130c6 176 157 261 349 261 178 0 360-88 360-250 0-109-72-188-217-228-134-37-272-59-404-103C123-738 53-851 53-998c0-227 241-381 478-381 258 0 497 146 491 391H892" id="bc"/><path d="M209-478c0 191 154 370 342 370 187 0 348-181 348-370S737-849 551-849c-188 0-342 180-342 371zm820 0c0 258-224 500-478 500-147 0-262-65-347-196v573H74V-957h130v174c85-131 200-196 347-196 256 0 478 244 478 501" id="bd"/><path d="M240-1205c-40 0-79-36-79-76s39-76 79-76c41 0 78 35 78 76s-37 76-78 76zM47-957h257V0H174v-827H47v-130" id="be"/><path d="M550-827c-191 0-346 159-346 349V0H72v-957h132v174c85-116 198-174 339-174h204v174c-69-29-134-44-197-44" id="bf"/><path d="M406 0C279 4 176-105 176-232v-595H26v-130c75 0 120-17 137-51 9-17 13-69 13-155h130v206h241v130H306v595c0 70 49 105 146 105 18 0 78-3 95-3V0H406" id="bg"/><g id="c"><use transform="matrix(0.009548632812500001,0,0,0.009548632812500001,0,0)" xlink:href="#bc"/><use transform="matrix(0.009548632812500001,0,0,0.009548632812500001,10.742211914062501,0)" xlink:href="#bd"/><use transform="matrix(0.009548632812500001,0,0,0.009548632812500001,21.369840234375005,0)" xlink:href="#be"/><use transform="matrix(0.009548632812500001,0,0,0.009548632812500001,25.189293359375004,0)" xlink:href="#bf"/><use transform="matrix(0.009548632812500001,0,0,0.009548632812500001,33.37247167968751,0)" xlink:href="#be"/><use transform="matrix(0.009548632812500001,0,0,0.009548632812500001,37.19192480468751,0)" xlink:href="#bg"/></g><path d="M558-1225V0H428v-1225H21v-130h954v130H558" id="bh"/><path d="M455-849c-173 0-251 180-251 371V0H74v-957h130v106c60-85 144-128 251-128 146 0 245 69 296 208 37-139 135-208 295-208 233 0 349 167 349 501V0h-130v-478c0-247-73-371-219-371-169 0-241 180-241 371V0H675l-1-478c0-247-73-371-219-371" id="bi"/><g id="d"><use transform="matrix(0.009548632812500001,0,0,0.009548632812500001,0,0)" xlink:href="#bh"/><use transform="matrix(0.009548632812500001,0,0,0.009548632812500001,10.12155078125,0)" xlink:href="#bf"/><use transform="matrix(0.009548632812500001,0,0,0.009548632812500001,18.3047291015625,0)" xlink:href="#aY"/><use transform="matrix(0.009548632812500001,0,0,0.009548632812500001,28.235307226562504,0)" xlink:href="#bi"/><use transform="matrix(0.009548632812500001,0,0,0.009548632812500001,43.007042187500005,0)" xlink:href="#bd"/><use transform="matrix(0.009548632812500001,0,0,0.009548632812500001,53.63467050781251,0)" xlink:href="#aZ"/></g><path d="M855-938c0-185-202-291-399-291H204v582h271c185 5 380-116 380-291zm130 0c0 214-192 369-387 402L895 0H743L456-517H204V0H72v-1355h384c256-7 529 172 529 417" id="bj"/><path d="M497-108c108 0 303-51 303-143v-220c-2 23-338 19-365 38-104 20-200 82-200 182 0 95 87 143 262 143zm28-871c161 0 405 100 405 248v579c0 27 16 41 48 44-1 21-3 64-5 129-72-4-122-33-151-87-82 59-188 88-318 88C233 22 97-70 97-253c0-145 124-253 248-288 70-20 368-9 427-58 17-9 27-25 29-46-1 7-1-13-1-60 0-84-168-147-260-147-166 0-269 58-309 174l-126-27c31-178 203-274 420-274" id="bk"/><path d="M545-849c-196 0-341 171-341 371V0H74v-957h130v174c77-131 190-196 341-196 285 0 449 200 449 493V0H862v-478c2-219-106-371-317-371" id="bl"/><g id="e"><use transform="matrix(0.009548632812500001,0,0,0.009548632812500001,0,0)" xlink:href="#bj"/><use transform="matrix(0.009548632812500001,0,0,0.009548632812500001,10.4748501953125,0)" xlink:href="#bk"/><use transform="matrix(0.009548632812500001,0,0,0.009548632812500001,20.653692773437502,0)" xlink:href="#be"/><use transform="matrix(0.009548632812500001,0,0,0.009548632812500001,24.4731458984375,0)" xlink:href="#bl"/><use transform="matrix(0.009548632812500001,0,0,0.009548632812500001,35.138968750000004,0)" xlink:href="#bb"/></g><path d="M52-478c0-256 228-501 485-501 264 0 489 248 480 516H180c0 180 174 355 357 355 148 0 301-110 347-219l130 23C955-140 749 17 537 22 280 28 52-222 52-478zm815-115c-38-129-172-257-330-256-158 0-295 130-340 256h670" id="bm"/><path d="M-2-478c0-256 249-501 505-501 147 0 261 65 343 196v-572h132V0H846v-174C761-43 645 22 498 22 243 22-2-223-2-478zm843 0c0-191-151-371-338-371S128-665 128-478s183 370 370 370c188 0 343-180 343-370" id="bn"/><g id="f"><use transform="matrix(0.009548632812500001,0,0,0.009548632812500001,0,0)" xlink:href="#bj"/><use transform="matrix(0.009548632812500001,0,0,0.009548632812500001,10.4748501953125,0)" xlink:href="#bm"/><use transform="matrix(0.009548632812500001,0,0,0.009548632812500001,21.217062109375004,0)" xlink:href="#bk"/><use transform="matrix(0.009548632812500001,0,0,0.009548632812500001,31.3959046875,0)" xlink:href="#bn"/><use transform="matrix(0.009548632812500001,0,0,0.009548632812500001,42.0235330078125,0)" xlink:href="#be"/><use transform="matrix(0.009548632812500001,0,0,0.009548632812500001,45.842986132812506,0)" xlink:href="#bl"/><use transform="matrix(0.009548632812500001,0,0,0.009548632812500001,56.50880898437501,0)" xlink:href="#bm"/><use transform="matrix(0.009548632812500001,0,0,0.009548632812500001,67.2510208984375,0)" xlink:href="#aZ"/><use transform="matrix(0.009548632812500001,0,0,0.009548632812500001,76.82829960937501,0)" xlink:href="#aZ"/></g><path d="M985-938c0 247-271 428-529 421H204V0H72v-1355h384c256-7 529 172 529 417zm-130 0c0-191-192-287-399-287H204v578h252c200 4 399-104 399-291" id="bo"/><path d="M881-477c0-189-160-372-351-372-189 0-348 181-348 372s160 369 348 369 351-180 351-369zm-829-1c0-256 220-501 478-501 257 0 481 246 481 502S785 22 530 22C276 22 52-223 52-478" id="bp"/><path d="M86-1355h132V0H86v-1355" id="bq"/><g id="g"><use transform="matrix(0.009548632812500001,0,0,0.009548632812500001,0,0)" xlink:href="#bo"/><use transform="matrix(0.009548632812500001,0,0,0.009548632812500001,10.12155078125,0)" xlink:href="#bm"/><use transform="matrix(0.009548632812500001,0,0,0.009548632812500001,20.863762695312502,0)" xlink:href="#bp"/><use transform="matrix(0.009548632812500001,0,0,0.009548632812500001,31.605974609375004,0)" xlink:href="#bd"/><use transform="matrix(0.009548632812500001,0,0,0.009548632812500001,42.23360292968751,0)" xlink:href="#bq"/><use transform="matrix(0.009548632812500001,0,0,0.009548632812500001,45.623367578125006,0)" xlink:href="#bm"/></g><g id="h"><use transform="matrix(0.009548632812500001,0,0,0.009548632812500001,0,0)" xlink:href="#bk"/><use transform="matrix(0.009548632812500001,0,0,0.009548632812500001,10.178842578125002,0)" xlink:href="#bf"/><use transform="matrix(0.009548632812500001,0,0,0.009548632812500001,17.5981302734375,0)" xlink:href="#bm"/></g><g id="i"><use transform="matrix(0.009548632812500001,0,0,0.009548632812500001,0,0)" xlink:href="#bd"/><use transform="matrix(0.009548632812500001,0,0,0.009548632812500001,10.627628320312501,0)" xlink:href="#bk"/><use transform="matrix(0.009548632812500001,0,0,0.009548632812500001,20.806470898437503,0)" xlink:href="#aZ"/><use transform="matrix(0.009548632812500001,0,0,0.009548632812500001,30.383749609375002,0)" xlink:href="#aZ"/><use transform="matrix(0.009548632812500001,0,0,0.009548632812500001,39.9610283203125,0)" xlink:href="#be"/><use transform="matrix(0.009548632812500001,0,0,0.009548632812500001,43.7804814453125,0)" xlink:href="#bp"/><use transform="matrix(0.009548632812500001,0,0,0.009548632812500001,54.522693359375005,0)" xlink:href="#bl"/><use transform="matrix(0.009548632812500001,0,0,0.009548632812500001,65.18851621093751,0)" xlink:href="#bk"/><use transform="matrix(0.009548632812500001,0,0,0.009548632812500001,74.9090244140625,0)" xlink:href="#bg"/><use transform="matrix(0.009548632812500001,0,0,0.009548632812500001,80.7527876953125,0)" xlink:href="#bm"/></g><path d="M922-478c0-187-188-371-375-371S209-669 209-478c0 190 155 370 343 370 187 0 370-183 370-370zm130 0c0 255-245 500-500 500-147 0-263-65-348-196V0H72v-1355h132v572c82-131 196-196 343-196 256 0 505 245 505 501" id="br"/><g id="j"><use transform="matrix(0.009548632812500001,0,0,0.009548632812500001,0,0)" xlink:href="#bk"/><use transform="matrix(0.009548632812500001,0,0,0.009548632812500001,10.178842578125002,0)" xlink:href="#br"/><use transform="matrix(0.009548632812500001,0,0,0.009548632812500001,21.045186718750003,0)" xlink:href="#bp"/><use transform="matrix(0.009548632812500001,0,0,0.009548632812500001,31.787398632812504,0)" xlink:href="#aY"/><use transform="matrix(0.009548632812500001,0,0,0.009548632812500001,41.7179767578125,0)" xlink:href="#bg"/></g><path d="M543-849c-184 0-339 185-339 371V0H74v-1355h130v572c84-131 197-196 339-196 250 0 421 235 421 493V0H834v-478c4-195-107-371-291-371" id="bs"/><path d="M395 0L60-957h137l259 739 167-476-93-263h137l262 744 258-744h138L991 0H866L692-498 516 0H395" id="bt"/><path d="M177-478c0 192 146 370 333 370s324-179 324-370c0-193-136-371-324-371-187 0-333 180-333 371zm332 742c191 3 334-157 330-347v-91C756-43 647 22 510 22 246 22 47-209 47-478c0-259 208-501 463-501 140 0 250 67 329 201v-179h130v888c6 260-201 463-461 463C272 394 95 221 61 14L188-7c30 151 149 268 321 271" id="bu"/><g id="k"><use transform="matrix(0.009548632812500001,0,0,0.009548632812500001,0,0)" xlink:href="#aZ"/><use transform="matrix(0.009548632812500001,0,0,0.009548632812500001,9.5772787109375,0)" xlink:href="#bs"/><use transform="matrix(0.009548632812500001,0,0,0.009548632812500001,19.612891796875,0)" xlink:href="#bp"/><use transform="matrix(0.009548632812500001,0,0,0.009548632812500001,29.438434960937503,0)" xlink:href="#bt"/><use transform="matrix(0.009548632812500001,0,0,0.009548632812500001,43.178917578125,0)" xlink:href="#be"/><use transform="matrix(0.009548632812500001,0,0,0.009548632812500001,46.998370703125005,0)" xlink:href="#bl"/><use transform="matrix(0.009548632812500001,0,0,0.009548632812500001,57.66419355468751,0)" xlink:href="#bu"/></g><g id="l"><use transform="matrix(0.009548632812500001,0,0,0.009548632812500001,0,0)" xlink:href="#bg"/><use transform="matrix(0.009548632812500001,0,0,0.009548632812500001,5.84376328125,0)" xlink:href="#bs"/><use transform="matrix(0.009548632812500001,0,0,0.009548632812500001,16.013057226562502,0)" xlink:href="#bm"/><use transform="matrix(0.009548632812500001,0,0,0.009548632812500001,26.755269140625003,0)" xlink:href="#be"/><use transform="matrix(0.009548632812500001,0,0,0.009548632812500001,30.574722265625002,0)" xlink:href="#bf"/></g><g id="m"><use transform="matrix(0.009548632812500001,0,0,0.009548632812500001,0,0)" xlink:href="#aX"/><use transform="matrix(0.009548632812500001,0,0,0.009548632812500001,9.930578125,0)" xlink:href="#aY"/><use transform="matrix(0.009548632812500001,0,0,0.009548632812500001,19.86115625,0)" xlink:href="#aZ"/><use transform="matrix(0.009548632812500001,0,0,0.009548632812500001,29.4384349609375,0)" xlink:href="#ba"/><use transform="matrix(0.009548632812500001,0,0,0.009548632812500001,37.4974810546875,0)" xlink:href="#bb"/></g><g id="n"><use transform="matrix(0.009548632812500001,0,0,0.009548632812500001,0,0)" xlink:href="#aZ"/><use transform="matrix(0.009548632812500001,0,0,0.009548632812500001,9.5772787109375,0)" xlink:href="#bd"/><use transform="matrix(0.009548632812500001,0,0,0.009548632812500001,20.204907031250002,0)" xlink:href="#be"/><use transform="matrix(0.009548632812500001,0,0,0.009548632812500001,24.02436015625,0)" xlink:href="#bf"/><use transform="matrix(0.009548632812500001,0,0,0.009548632812500001,32.207538476562505,0)" xlink:href="#be"/><use transform="matrix(0.009548632812500001,0,0,0.009548632812500001,36.02699160156251,0)" xlink:href="#bg"/></g><g id="o"><use transform="matrix(0.009548632812500001,0,0,0.009548632812500001,0,0)" xlink:href="#bp"/><use transform="matrix(0.009548632812500001,0,0,0.009548632812500001,10.742211914062501,0)" xlink:href="#bl"/></g><g id="p"><use transform="matrix(0.009548632812500001,0,0,0.009548632812500001,0,0)" xlink:href="#bu"/><use transform="matrix(0.009548632812500001,0,0,0.009548632812500001,10.503496093750002,0)" xlink:href="#bk"/><use transform="matrix(0.009548632812500001,0,0,0.009548632812500001,20.682338671875,0)" xlink:href="#bi"/><use transform="matrix(0.009548632812500001,0,0,0.009548632812500001,35.4540736328125,0)" xlink:href="#bm"/></g><g id="q"><use transform="matrix(0.009548632812500001,0,0,0.009548632812500001,0,0)" xlink:href="#bn"/><use transform="matrix(0.009548632812500001,0,0,0.009548632812500001,10.627628320312501,0)" xlink:href="#bk"/><use transform="matrix(0.009548632812500001,0,0,0.009548632812500001,20.195358398437502,0)" xlink:href="#bb"/></g><g id="r"><use transform="matrix(0.009548632812500001,0,0,0.009548632812500001,0,0)" xlink:href="#bf"/><use transform="matrix(0.009548632812500001,0,0,0.009548632812500001,7.4192876953125,0)" xlink:href="#bk"/><use transform="matrix(0.009548632812500001,0,0,0.009548632812500001,17.1397958984375,0)" xlink:href="#bg"/><use transform="matrix(0.009548632812500001,0,0,0.009548632812500001,22.983559179687504,0)" xlink:href="#bs"/><use transform="matrix(0.009548632812500001,0,0,0.009548632812500001,33.15285312500001,0)" xlink:href="#bm"/><use transform="matrix(0.009548632812500001,0,0,0.009548632812500001,43.895065039062516,0)" xlink:href="#bf"/></g><g id="s"><use transform="matrix(0.009548632812500001,0,0,0.009548632812500001,0,0)" xlink:href="#bg"/><use transform="matrix(0.009548632812500001,0,0,0.009548632812500001,5.84376328125,0)" xlink:href="#bs"/><use transform="matrix(0.009548632812500001,0,0,0.009548632812500001,15.879376367187502,0)" xlink:href="#bk"/><use transform="matrix(0.009548632812500001,0,0,0.009548632812500001,26.058218945312504,0)" xlink:href="#bl"/></g><g id="t"><use transform="matrix(0.009548632812500001,0,0,0.009548632812500001,0,0)" xlink:href="#bn"/><use transform="matrix(0.009548632812500001,0,0,0.009548632812500001,10.627628320312501,0)" xlink:href="#bf"/><use transform="matrix(0.009548632812500001,0,0,0.009548632812500001,18.046916015625,0)" xlink:href="#bm"/><use transform="matrix(0.009548632812500001,0,0,0.009548632812500001,28.789127929687503,0)" xlink:href="#aZ"/><use transform="matrix(0.009548632812500001,0,0,0.009548632812500001,38.366406640625,0)" xlink:href="#aZ"/><use transform="matrix(0.009548632812500001,0,0,0.009548632812500001,47.94368535156251,0)" xlink:href="#be"/><use transform="matrix(0.009548632812500001,0,0,0.009548632812500001,51.7631384765625,0)" xlink:href="#bl"/><use transform="matrix(0.009548632812500001,0,0,0.009548632812500001,62.428961328125006,0)" xlink:href="#bu"/></g><path d="M431-1222c-103-2-191 65-188 167v98h188v130H243V0H111v-827H33v-130h78c-7-146 8-241 94-317 61-53 135-81 226-81v133" id="bv"/><g id="u"><use transform="matrix(0.009548632812500001,0,0,0.009548632812500001,0,0)" xlink:href="#bv"/><use transform="matrix(0.009548632812500001,0,0,0.009548632812500001,4.6310869140625,0)" xlink:href="#bp"/><use transform="matrix(0.009548632812500001,0,0,0.009548632812500001,15.373298828125002,0)" xlink:href="#bf"/></g><g id="v"><use transform="matrix(0.009548632812500001,0,0,0.009548632812500001,0,0)" xlink:href="#bg"/><use transform="matrix(0.009548632812500001,0,0,0.009548632812500001,5.84376328125,0)" xlink:href="#bs"/><use transform="matrix(0.009548632812500001,0,0,0.009548632812500001,16.013057226562502,0)" xlink:href="#bm"/></g><g id="w"><use transform="matrix(0.009548632812500001,0,0,0.009548632812500001,0,0)" xlink:href="#bt"/><use transform="matrix(0.009548632812500001,0,0,0.009548632812500001,13.740482617187501,0)" xlink:href="#bm"/><use transform="matrix(0.009548632812500001,0,0,0.009548632812500001,24.48269453125,0)" xlink:href="#bk"/><use transform="matrix(0.009548632812500001,0,0,0.009548632812500001,34.203202734375004,0)" xlink:href="#bg"/><use transform="matrix(0.009548632812500001,0,0,0.009548632812500001,40.046966015625,0)" xlink:href="#bs"/><use transform="matrix(0.009548632812500001,0,0,0.009548632812500001,50.2162599609375,0)" xlink:href="#bm"/><use transform="matrix(0.009548632812500001,0,0,0.009548632812500001,60.958471874999994,0)" xlink:href="#bf"/></g><g id="x"><use transform="matrix(0.009548632812500001,0,0,0.009548632812500001,0,0)" xlink:href="#bk"/><use transform="matrix(0.009548632812500001,0,0,0.009548632812500001,10.178842578125002,0)" xlink:href="#bd"/><use transform="matrix(0.009548632812500001,0,0,0.009548632812500001,20.806470898437503,0)" xlink:href="#bd"/><use transform="matrix(0.009548632812500001,0,0,0.009548632812500001,31.434099218750006,0)" xlink:href="#bf"/><use transform="matrix(0.009548632812500001,0,0,0.009548632812500001,38.5478306640625,0)" xlink:href="#bp"/><use transform="matrix(0.009548632812500001,0,0,0.009548632812500001,49.290042578125004,0)" xlink:href="#bd"/><use transform="matrix(0.009548632812500001,0,0,0.009548632812500001,59.91767089843751,0)" xlink:href="#bf"/><use transform="matrix(0.009548632812500001,0,0,0.009548632812500001,68.10084921875,0)" xlink:href="#be"/><use transform="matrix(0.009548632812500001,0,0,0.009548632812500001,71.92030234375,0)" xlink:href="#bk"/><use transform="matrix(0.009548632812500001,0,0,0.009548632812500001,81.64081054687499,0)" xlink:href="#bg"/><use transform="matrix(0.009548632812500001,0,0,0.009548632812500001,87.484573828125,0)" xlink:href="#bm"/><use transform="matrix(0.009548632812500001,0,0,0.009548632812500001,98.22678574218752,0)" xlink:href="#bq"/><use transform="matrix(0.009548632812500001,0,0,0.009548632812500001,101.61655039062501,0)" xlink:href="#bb"/><use transform="matrix(0.009548632812500001,0,0,0.009548632812500001,112.15824101562501,0)" xlink:href="#aW"/></g><path d="M178-957l334 813 331-813h142L595 0H424L33-957h145" id="bw"/><g id="y"><use transform="matrix(0.009548632812500001,0,0,0.009548632812500001,0,0)" xlink:href="#aX"/><use transform="matrix(0.009548632812500001,0,0,0.009548632812500001,9.930578125,0)" xlink:href="#bp"/><use transform="matrix(0.009548632812500001,0,0,0.009548632812500001,19.756121289062502,0)" xlink:href="#bt"/><use transform="matrix(0.009548632812500001,0,0,0.009548632812500001,33.49660390625,0)" xlink:href="#bm"/><use transform="matrix(0.009548632812500001,0,0,0.009548632812500001,43.7804814453125,0)" xlink:href="#bw"/><use transform="matrix(0.009548632812500001,0,0,0.009548632812500001,53.338662890625,0)" xlink:href="#bm"/><use transform="matrix(0.009548632812500001,0,0,0.009548632812500001,64.08087480468751,0)" xlink:href="#bf"/></g><g id="z"><use transform="matrix(0.009548632812500001,0,0,0.009548632812500001,0,0)" xlink:href="#bl"/><use transform="matrix(0.009548632812500001,0,0,0.009548632812500001,10.6658228515625,0)" xlink:href="#bp"/><use transform="matrix(0.009548632812500001,0,0,0.009548632812500001,21.408034765625,0)" xlink:href="#bg"/></g><g id="A"><use transform="matrix(0.009548632812500001,0,0,0.009548632812500001,0,0)" xlink:href="#bk"/><use transform="matrix(0.009548632812500001,0,0,0.009548632812500001,10.178842578125002,0)" xlink:href="#bd"/><use transform="matrix(0.009548632812500001,0,0,0.009548632812500001,20.806470898437503,0)" xlink:href="#bd"/><use transform="matrix(0.009548632812500001,0,0,0.009548632812500001,31.434099218750006,0)" xlink:href="#bf"/><use transform="matrix(0.009548632812500001,0,0,0.009548632812500001,38.5478306640625,0)" xlink:href="#bp"/><use transform="matrix(0.009548632812500001,0,0,0.009548632812500001,49.290042578125004,0)" xlink:href="#bd"/><use transform="matrix(0.009548632812500001,0,0,0.009548632812500001,59.91767089843751,0)" xlink:href="#bf"/><use transform="matrix(0.009548632812500001,0,0,0.009548632812500001,68.10084921875,0)" xlink:href="#be"/><use transform="matrix(0.009548632812500001,0,0,0.009548632812500001,71.92030234375,0)" xlink:href="#bk"/><use transform="matrix(0.009548632812500001,0,0,0.009548632812500001,81.64081054687499,0)" xlink:href="#bg"/><use transform="matrix(0.009548632812500001,0,0,0.009548632812500001,87.484573828125,0)" xlink:href="#bm"/><use transform="matrix(0.009548632812500001,0,0,0.009548632812500001,98.22678574218752,0)" xlink:href="#bq"/><use transform="matrix(0.009548632812500001,0,0,0.009548632812500001,101.61655039062501,0)" xlink:href="#bb"/></g><g id="B"><use transform="matrix(0.009548632812500001,0,0,0.009548632812500001,0,0)" xlink:href="#bv"/><use transform="matrix(0.009548632812500001,0,0,0.009548632812500001,4.6310869140625,0)" xlink:href="#bp"/><use transform="matrix(0.009548632812500001,0,0,0.009548632812500001,15.373298828125002,0)" xlink:href="#bf"/></g><g id="C"><use transform="matrix(0.009548632812500001,0,0,0.009548632812500001,0,0)" xlink:href="#bt"/><use transform="matrix(0.009548632812500001,0,0,0.009548632812500001,13.740482617187501,0)" xlink:href="#bm"/><use transform="matrix(0.009548632812500001,0,0,0.009548632812500001,24.48269453125,0)" xlink:href="#bk"/><use transform="matrix(0.009548632812500001,0,0,0.009548632812500001,34.203202734375004,0)" xlink:href="#bg"/><use transform="matrix(0.009548632812500001,0,0,0.009548632812500001,40.046966015625,0)" xlink:href="#bs"/><use transform="matrix(0.009548632812500001,0,0,0.009548632812500001,50.2162599609375,0)" xlink:href="#bm"/><use transform="matrix(0.009548632812500001,0,0,0.009548632812500001,60.958471874999994,0)" xlink:href="#bf"/></g><g id="D"><use transform="matrix(0.009548632812500001,0,0,0.009548632812500001,0,0)" xlink:href="#bi"/><use transform="matrix(0.009548632812500001,0,0,0.009548632812500001,14.7717349609375,0)" xlink:href="#bk"/><use transform="matrix(0.009548632812500001,0,0,0.009548632812500001,24.339465039062503,0)" xlink:href="#bb"/></g><g id="E"><use transform="matrix(0.009548632812500001,0,0,0.009548632812500001,0,0)" xlink:href="#bi"/><use transform="matrix(0.009548632812500001,0,0,0.009548632812500001,14.7717349609375,0)" xlink:href="#bk"/><use transform="matrix(0.009548632812500001,0,0,0.009548632812500001,24.950577539062504,0)" xlink:href="#ba"/><use transform="matrix(0.009548632812500001,0,0,0.009548632812500001,32.245733007812504,0)" xlink:href="#bm"/></g><path d="M224-957l269 369 270-369h164L577-475 927 0H760L493-366 227 0H61l352-475L61-957h163" id="bx"/><path d="M51-478c0-256 221-509 478-501 201 6 353 126 426 274H803c-71-96-163-144-274-144-189 0-348 180-348 372 0 191 160 369 348 369 100 0 189-44 266-132h155C852-65 712 22 529 22 275 22 51-223 51-478" id="by"/><g id="F"><use transform="matrix(0.009548632812500001,0,0,0.009548632812500001,0,0)" xlink:href="#bm"/><use transform="matrix(0.009548632812500001,0,0,0.009548632812500001,10.742211914062501,0)" xlink:href="#bx"/><use transform="matrix(0.009548632812500001,0,0,0.009548632812500001,20.710984570312505,0)" xlink:href="#bd"/><use transform="matrix(0.009548632812500001,0,0,0.009548632812500001,31.338612890625008,0)" xlink:href="#bm"/><use transform="matrix(0.009548632812500001,0,0,0.009548632812500001,42.08082480468751,0)" xlink:href="#bf"/><use transform="matrix(0.009548632812500001,0,0,0.009548632812500001,50.264003125000016,0)" xlink:href="#be"/><use transform="matrix(0.009548632812500001,0,0,0.009548632812500001,54.08345625000001,0)" xlink:href="#bm"/><use transform="matrix(0.009548632812500001,0,0,0.009548632812500001,64.8256681640625,0)" xlink:href="#bl"/><use transform="matrix(0.009548632812500001,0,0,0.009548632812500001,75.491491015625,0)" xlink:href="#by"/><use transform="matrix(0.009548632812500001,0,0,0.009548632812500001,85.842208984375,0)" xlink:href="#bm"/></g><use transform="matrix(0.009548632812500001,0,0,0.009548632812500001,0,0)" xlink:href="#bk" id="G"/><g id="H"><use transform="matrix(0.009548632812500001,0,0,0.009548632812500001,0,0)" xlink:href="#bd"/><use transform="matrix(0.009548632812500001,0,0,0.009548632812500001,10.627628320312501,0)" xlink:href="#bq"/><use transform="matrix(0.009548632812500001,0,0,0.009548632812500001,14.017392968750002,0)" xlink:href="#bm"/><use transform="matrix(0.009548632812500001,0,0,0.009548632812500001,24.759604882812503,0)" xlink:href="#bk"/><use transform="matrix(0.009548632812500001,0,0,0.009548632812500001,34.9384474609375,0)" xlink:href="#aZ"/><use transform="matrix(0.009548632812500001,0,0,0.009548632812500001,44.515726171875,0)" xlink:href="#bk"/><use transform="matrix(0.009548632812500001,0,0,0.009548632812500001,54.69456875,0)" xlink:href="#bl"/><use transform="matrix(0.009548632812500001,0,0,0.009548632812500001,65.3603916015625,0)" xlink:href="#bg"/></g><g id="I"><use transform="matrix(0.009548632812500001,0,0,0.009548632812500001,0,0)" xlink:href="#bm"/><use transform="matrix(0.009548632812500001,0,0,0.009548632812500001,10.742211914062501,0)" xlink:href="#bx"/><use transform="matrix(0.009548632812500001,0,0,0.009548632812500001,20.710984570312505,0)" xlink:href="#bd"/><use transform="matrix(0.009548632812500001,0,0,0.009548632812500001,31.338612890625008,0)" xlink:href="#bm"/><use transform="matrix(0.009548632812500001,0,0,0.009548632812500001,42.08082480468751,0)" xlink:href="#bf"/><use transform="matrix(0.009548632812500001,0,0,0.009548632812500001,50.264003125000016,0)" xlink:href="#be"/><use transform="matrix(0.009548632812500001,0,0,0.009548632812500001,54.08345625000001,0)" xlink:href="#bm"/><use transform="matrix(0.009548632812500001,0,0,0.009548632812500001,64.8256681640625,0)" xlink:href="#bl"/><use transform="matrix(0.009548632812500001,0,0,0.009548632812500001,75.491491015625,0)" xlink:href="#by"/><use transform="matrix(0.009548632812500001,0,0,0.009548632812500001,85.842208984375,0)" xlink:href="#bm"/><use transform="matrix(0.009548632812500001,0,0,0.009548632812500001,96.58442089843751,0)" xlink:href="#aW"/></g><path d="M494-979c203 0 420 127 420 319 0 109-70 192-210 251-53 22-170 52-351 90-101 22-152 85-152 189h701V0H68v-130c0-167 83-269 250-305 133-28 223-50 271-67 129-45 194-97 194-158 0-133-117-186-288-189-126-2-301 76-294 193H69c-7-196 219-323 425-323" id="bz"/><g id="J"><use transform="matrix(0.0087890625,0,0,0.0087890625,0,0)" xlink:href="#bz"/><use transform="matrix(0.0087890625,0,0,0.0087890625,9.140625,0)" xlink:href="#aW"/></g><path d="M204-1355v1225h596V0H74v-1355h130" id="bA"/><g id="K"><use transform="matrix(0.009548632812500001,0,0,0.009548632812500001,0,0)" xlink:href="#bA"/><use transform="matrix(0.009548632812500001,0,0,0.009548632812500001,8.6988044921875,0)" xlink:href="#bk"/><use transform="matrix(0.009548632812500001,0,0,0.009548632812500001,18.877647070312502,0)" xlink:href="#by"/><use transform="matrix(0.009548632812500001,0,0,0.009548632812500001,29.228365039062503,0)" xlink:href="#ba"/><use transform="matrix(0.009548632812500001,0,0,0.009548632812500001,37.2874111328125,0)" xlink:href="#be"/><use transform="matrix(0.009548632812500001,0,0,0.009548632812500001,41.106864257812504,0)" xlink:href="#bl"/><use transform="matrix(0.009548632812500001,0,0,0.009548632812500001,51.772687109375006,0)" xlink:href="#bu"/></g><path d="M848-827c4-216-138-398-348-398H204v1095h296c203 6 348-189 348-398v-299zm130 299C987-254 769 0 500 0H74v-1355h426c267-9 478 255 478 528v299" id="bB"/><g id="L"><use transform="matrix(0.009548632812500001,0,0,0.009548632812500001,0,0)" xlink:href="#bB"/><use transform="matrix(0.009548632812500001,0,0,0.009548632812500001,10.4748501953125,0)" xlink:href="#bk"/><use transform="matrix(0.009548632812500001,0,0,0.009548632812500001,20.0425802734375,0)" xlink:href="#bb"/></g><g id="M"><use transform="matrix(0.009548632812500001,0,0,0.009548632812500001,0,0)" xlink:href="#bj"/><use transform="matrix(0.009548632812500001,0,0,0.009548632812500001,10.4748501953125,0)" xlink:href="#bm"/><use transform="matrix(0.009548632812500001,0,0,0.009548632812500001,21.217062109375004,0)" xlink:href="#aZ"/><use transform="matrix(0.009548632812500001,0,0,0.009548632812500001,30.7943408203125,0)" xlink:href="#bp"/><use transform="matrix(0.009548632812500001,0,0,0.009548632812500001,41.53655273437501,0)" xlink:href="#aY"/><use transform="matrix(0.009548632812500001,0,0,0.009548632812500001,51.467130859375004,0)" xlink:href="#bf"/><use transform="matrix(0.009548632812500001,0,0,0.009548632812500001,59.650309179687504,0)" xlink:href="#by"/><use transform="matrix(0.009548632812500001,0,0,0.009548632812500001,70.0010271484375,0)" xlink:href="#bm"/><use transform="matrix(0.009548632812500001,0,0,0.009548632812500001,80.74323906250001,0)" xlink:href="#aZ"/></g><path d="M865-1355v130H204v424h531v134H204V0H74v-1355h791" id="bC"/><g id="N"><use transform="matrix(0.009548632812500001,0,0,0.009548632812500001,0,0)" xlink:href="#bC"/><use transform="matrix(0.009548632812500001,0,0,0.009548632812500001,8.8133880859375,0)" xlink:href="#bk"/><use transform="matrix(0.009548632812500001,0,0,0.009548632812500001,18.992230664062504,0)" xlink:href="#bl"/><use transform="matrix(0.009548632812500001,0,0,0.009548632812500001,29.658053515625006,0)" xlink:href="#aZ"/></g><g id="O"><use transform="matrix(0.009548632812500001,0,0,0.009548632812500001,0,0)" xlink:href="#bC"/><use transform="matrix(0.009548632812500001,0,0,0.009548632812500001,8.8133880859375,0)" xlink:href="#bp"/><use transform="matrix(0.009548632812500001,0,0,0.009548632812500001,19.555600000000002,0)" xlink:href="#bp"/><use transform="matrix(0.009548632812500001,0,0,0.009548632812500001,30.297811914062503,0)" xlink:href="#bg"/><use transform="matrix(0.009548632812500001,0,0,0.009548632812500001,36.141575195312505,0)" xlink:href="#br"/><use transform="matrix(0.009548632812500001,0,0,0.009548632812500001,47.0079193359375,0)" xlink:href="#bk"/><use transform="matrix(0.009548632812500001,0,0,0.009548632812500001,57.18676191406251,0)" xlink:href="#bq"/><use transform="matrix(0.009548632812500001,0,0,0.009548632812500001,60.57652656250001,0)" xlink:href="#bq"/></g><g id="P"><use transform="matrix(0.009548632812500001,0,0,0.009548632812500001,0,0)" xlink:href="#aZ"/><use transform="matrix(0.009548632812500001,0,0,0.009548632812500001,9.5772787109375,0)" xlink:href="#bm"/><use transform="matrix(0.009548632812500001,0,0,0.009548632812500001,20.319490625,0)" xlink:href="#bk"/><use transform="matrix(0.009548632812500001,0,0,0.009548632812500001,30.498333203125,0)" xlink:href="#aZ"/><use transform="matrix(0.009548632812500001,0,0,0.009548632812500001,40.07561191406249,0)" xlink:href="#bp"/><use transform="matrix(0.009548632812500001,0,0,0.009548632812500001,50.81782382812499,0)" xlink:href="#bl"/></g><g id="Q"><use transform="matrix(0.009548632812500001,0,0,0.009548632812500001,0,0)" xlink:href="#be"/><use transform="matrix(0.009548632812500001,0,0,0.009548632812500001,3.8194531250000003,0)" xlink:href="#aZ"/></g><g id="R"><use transform="matrix(0.009548632812500001,0,0,0.009548632812500001,0,0)" xlink:href="#bn"/><use transform="matrix(0.009548632812500001,0,0,0.009548632812500001,10.627628320312501,0)" xlink:href="#aY"/><use transform="matrix(0.009548632812500001,0,0,0.009548632812500001,20.558206445312504,0)" xlink:href="#bf"/><use transform="matrix(0.009548632812500001,0,0,0.009548632812500001,28.741384765625,0)" xlink:href="#be"/><use transform="matrix(0.009548632812500001,0,0,0.009548632812500001,32.560837890625,0)" xlink:href="#bl"/><use transform="matrix(0.009548632812500001,0,0,0.009548632812500001,43.226660742187505,0)" xlink:href="#bu"/></g><g id="S"><use transform="matrix(0.009548632812500001,0,0,0.009548632812500001,0,0)" xlink:href="#by"/><use transform="matrix(0.009548632812500001,0,0,0.009548632812500001,10.35071796875,0)" xlink:href="#bp"/><use transform="matrix(0.009548632812500001,0,0,0.009548632812500001,21.092929882812502,0)" xlink:href="#bq"/><use transform="matrix(0.009548632812500001,0,0,0.009548632812500001,24.48269453125,0)" xlink:href="#bn"/><use transform="matrix(0.009548632812500001,0,0,0.009548632812500001,35.1103228515625,0)" xlink:href="#bm"/><use transform="matrix(0.009548632812500001,0,0,0.009548632812500001,45.852534765625,0)" xlink:href="#aZ"/><use transform="matrix(0.009548632812500001,0,0,0.009548632812500001,55.429813476562494,0)" xlink:href="#bg"/></g><g id="T"><use transform="matrix(0.009548632812500001,0,0,0.009548632812500001,0,0)" xlink:href="#bk"/><use transform="matrix(0.009548632812500001,0,0,0.009548632812500001,10.178842578125002,0)" xlink:href="#bl"/><use transform="matrix(0.009548632812500001,0,0,0.009548632812500001,20.844665429687502,0)" xlink:href="#bn"/></g><g id="U"><use transform="matrix(0.009548632812500001,0,0,0.009548632812500001,0,0)" xlink:href="#bt"/><use transform="matrix(0.009548632812500001,0,0,0.009548632812500001,13.740482617187501,0)" xlink:href="#bm"/><use transform="matrix(0.009548632812500001,0,0,0.009548632812500001,24.48269453125,0)" xlink:href="#bg"/><use transform="matrix(0.009548632812500001,0,0,0.009548632812500001,30.326457812500003,0)" xlink:href="#bg"/><use transform="matrix(0.009548632812500001,0,0,0.009548632812500001,36.17022109375,0)" xlink:href="#bm"/><use transform="matrix(0.009548632812500001,0,0,0.009548632812500001,46.9124330078125,0)" xlink:href="#aZ"/><use transform="matrix(0.009548632812500001,0,0,0.009548632812500001,56.48971171875001,0)" xlink:href="#bg"/></g><g id="V"><use transform="matrix(0.009548632812500001,0,0,0.009548632812500001,0,0)" xlink:href="#bd"/><use transform="matrix(0.009548632812500001,0,0,0.009548632812500001,10.627628320312501,0)" xlink:href="#bk"/><use transform="matrix(0.009548632812500001,0,0,0.009548632812500001,20.806470898437503,0)" xlink:href="#bf"/><use transform="matrix(0.009548632812500001,0,0,0.009548632812500001,28.989649218750003,0)" xlink:href="#bg"/></g><g id="W"><use transform="matrix(0.009548632812500001,0,0,0.009548632812500001,0,0)" xlink:href="#bp"/><use transform="matrix(0.009548632812500001,0,0,0.009548632812500001,10.742211914062501,0)" xlink:href="#bv"/></g><g id="X"><use transform="matrix(0.009548632812500001,0,0,0.009548632812500001,0,0)" xlink:href="#bb"/><use transform="matrix(0.009548632812500001,0,0,0.009548632812500001,10.541690625000001,0)" xlink:href="#bm"/><use transform="matrix(0.009548632812500001,0,0,0.009548632812500001,21.283902539062503,0)" xlink:href="#bk"/><use transform="matrix(0.009548632812500001,0,0,0.009548632812500001,31.462745117187502,0)" xlink:href="#bf"/><use transform="matrix(0.009548632812500001,0,0,0.009548632812500001,39.6459234375,0)" xlink:href="#aW"/></g><path d="M86-101c0-65 55-113 120-113 56 0 111 53 111 109 0 139-105 285-233 290l-15-58c81-31 123-70 126-115-60-2-109-50-109-113" id="bD"/><g id="Y"><use transform="matrix(0.009548632812500001,0,0,0.009548632812500001,0,0)" xlink:href="#bh"/><use transform="matrix(0.009548632812500001,0,0,0.009548632812500001,10.12155078125,0)" xlink:href="#bs"/><use transform="matrix(0.009548632812500001,0,0,0.009548632812500001,20.1571638671875,0)" xlink:href="#aY"/><use transform="matrix(0.009548632812500001,0,0,0.009548632812500001,30.0877419921875,0)" xlink:href="#aZ"/><use transform="matrix(0.009548632812500001,0,0,0.009548632812500001,39.665020703125,0)" xlink:href="#bD"/></g><g id="Z"><use transform="matrix(0.009548632812500001,0,0,0.009548632812500001,0,0)" xlink:href="#be"/><use transform="matrix(0.009548632812500001,0,0,0.009548632812500001,3.8194531250000003,0)" xlink:href="#bg"/></g><g id="aa"><use transform="matrix(0.009548632812500001,0,0,0.009548632812500001,0,0)" xlink:href="#be"/><use transform="matrix(0.009548632812500001,0,0,0.009548632812500001,3.8194531250000003,0)" xlink:href="#bi"/><use transform="matrix(0.009548632812500001,0,0,0.009548632812500001,18.5911880859375,0)" xlink:href="#bd"/><use transform="matrix(0.009548632812500001,0,0,0.009548632812500001,29.21881640625,0)" xlink:href="#bp"/><use transform="matrix(0.009548632812500001,0,0,0.009548632812500001,39.9610283203125,0)" xlink:href="#bf"/><use transform="matrix(0.009548632812500001,0,0,0.009548632812500001,48.14420664062501,0)" xlink:href="#bg"/><use transform="matrix(0.009548632812500001,0,0,0.009548632812500001,53.987969921875,0)" xlink:href="#bk"/><use transform="matrix(0.009548632812500001,0,0,0.009548632812500001,64.1668125,0)" xlink:href="#bl"/><use transform="matrix(0.009548632812500001,0,0,0.009548632812500001,74.8326353515625,0)" xlink:href="#bg"/></g><g id="ab"><use transform="matrix(0.009548632812500001,0,0,0.009548632812500001,0,0)" xlink:href="#bg"/><use transform="matrix(0.009548632812500001,0,0,0.009548632812500001,5.84376328125,0)" xlink:href="#bs"/><use transform="matrix(0.009548632812500001,0,0,0.009548632812500001,15.879376367187502,0)" xlink:href="#bk"/><use transform="matrix(0.009548632812500001,0,0,0.009548632812500001,25.599884570312504,0)" xlink:href="#bg"/></g><path d="M187-1308c59 0 110 49 110 109 0 116-128 289-232 293-4-13-13-36-16-62 43-14 128-67 125-111-63-44-95-87-95-128 0-48 61-101 108-101" id="bE"/><g id="ac"><use transform="matrix(0.009548632812500001,0,0,0.009548632812500001,0,0)" xlink:href="#bd"/><use transform="matrix(0.009548632812500001,0,0,0.009548632812500001,10.627628320312501,0)" xlink:href="#bm"/><use transform="matrix(0.009548632812500001,0,0,0.009548632812500001,21.369840234375005,0)" xlink:href="#bp"/><use transform="matrix(0.009548632812500001,0,0,0.009548632812500001,32.112052148437506,0)" xlink:href="#bd"/><use transform="matrix(0.009548632812500001,0,0,0.009548632812500001,42.73968046875001,0)" xlink:href="#bq"/><use transform="matrix(0.009548632812500001,0,0,0.009548632812500001,46.1294451171875,0)" xlink:href="#bm"/><use transform="matrix(0.009548632812500001,0,0,0.009548632812500001,56.87165703125,0)" xlink:href="#bE"/><use transform="matrix(0.009548632812500001,0,0,0.009548632812500001,60.25187304687501,0)" xlink:href="#aZ"/></g><g id="ad"><use transform="matrix(0.009548632812500001,0,0,0.009548632812500001,0,0)" xlink:href="#bn"/><use transform="matrix(0.009548632812500001,0,0,0.009548632812500001,10.627628320312501,0)" xlink:href="#bk"/><use transform="matrix(0.009548632812500001,0,0,0.009548632812500001,20.195358398437502,0)" xlink:href="#bb"/></g><g id="ae"><use transform="matrix(0.009548632812500001,0,0,0.009548632812500001,0,0)" xlink:href="#bk"/><use transform="matrix(0.009548632812500001,0,0,0.009548632812500001,10.178842578125002,0)" xlink:href="#bl"/></g><path d="M267-1203c-40 0-79-36-79-76s39-76 79-76c41 0 78 35 78 76s-37 76-78 76zM11 265c103 3 189-67 189-167v-923c-41-1-88 3-126-2v-130h257L330 98c5 177-143 304-319 301V265" id="bF"/><g id="af"><use transform="matrix(0.009548632812500001,0,0,0.009548632812500001,0,0)" xlink:href="#bm"/><use transform="matrix(0.009548632812500001,0,0,0.009548632812500001,10.742211914062501,0)" xlink:href="#bl"/><use transform="matrix(0.009548632812500001,0,0,0.009548632812500001,21.408034765625,0)" xlink:href="#bF"/><use transform="matrix(0.009548632812500001,0,0,0.009548632812500001,25.418460546875004,0)" xlink:href="#bp"/><use transform="matrix(0.009548632812500001,0,0,0.009548632812500001,36.160672460937505,0)" xlink:href="#bb"/><use transform="matrix(0.009548632812500001,0,0,0.009548632812500001,46.702363085937506,0)" xlink:href="#bk"/><use transform="matrix(0.009548632812500001,0,0,0.009548632812500001,56.881205664062506,0)" xlink:href="#br"/><use transform="matrix(0.009548632812500001,0,0,0.009548632812500001,67.74754980468751,0)" xlink:href="#bq"/><use transform="matrix(0.009548632812500001,0,0,0.009548632812500001,71.13731445312501,0)" xlink:href="#bm"/></g><g id="ag"><use transform="matrix(0.009548632812500001,0,0,0.009548632812500001,0,0)" xlink:href="#bp"/><use transform="matrix(0.009548632812500001,0,0,0.009548632812500001,10.742211914062501,0)" xlink:href="#bl"/><use transform="matrix(0.009548632812500001,0,0,0.009548632812500001,21.408034765625,0)" xlink:href="#bm"/><use transform="matrix(0.009548632812500001,0,0,0.009548632812500001,32.150246679687505,0)" xlink:href="#aW"/></g><g id="ah"><use transform="matrix(0.009548632812500001,0,0,0.009548632812500001,0,0)" xlink:href="#bh"/><use transform="matrix(0.009548632812500001,0,0,0.009548632812500001,10.12155078125,0)" xlink:href="#bs"/><use transform="matrix(0.009548632812500001,0,0,0.009548632812500001,20.1571638671875,0)" xlink:href="#be"/><use transform="matrix(0.009548632812500001,0,0,0.009548632812500001,23.9766169921875,0)" xlink:href="#aZ"/></g><g id="ai"><use transform="matrix(0.009548632812500001,0,0,0.009548632812500001,0,0)" xlink:href="#bt"/><use transform="matrix(0.009548632812500001,0,0,0.009548632812500001,13.740482617187501,0)" xlink:href="#be"/><use transform="matrix(0.009548632812500001,0,0,0.009548632812500001,17.559935742187502,0)" xlink:href="#bq"/><use transform="matrix(0.009548632812500001,0,0,0.009548632812500001,20.949700390625,0)" xlink:href="#bq"/></g><g id="aj"><use transform="matrix(0.009548632812500001,0,0,0.009548632812500001,0,0)" xlink:href="#bu"/><use transform="matrix(0.009548632812500001,0,0,0.009548632812500001,10.503496093750002,0)" xlink:href="#bm"/><use transform="matrix(0.009548632812500001,0,0,0.009548632812500001,21.245708007812503,0)" xlink:href="#bg"/></g><g id="ak"><use transform="matrix(0.009548632812500001,0,0,0.009548632812500001,0,0)" xlink:href="#bd"/><use transform="matrix(0.009548632812500001,0,0,0.009548632812500001,10.627628320312501,0)" xlink:href="#bm"/><use transform="matrix(0.009548632812500001,0,0,0.009548632812500001,21.369840234375005,0)" xlink:href="#bp"/><use transform="matrix(0.009548632812500001,0,0,0.009548632812500001,32.112052148437506,0)" xlink:href="#bd"/><use transform="matrix(0.009548632812500001,0,0,0.009548632812500001,42.73968046875001,0)" xlink:href="#bq"/><use transform="matrix(0.009548632812500001,0,0,0.009548632812500001,46.1294451171875,0)" xlink:href="#bm"/></g><g id="al"><use transform="matrix(0.009548632812500001,0,0,0.009548632812500001,0,0)" xlink:href="#bg"/><use transform="matrix(0.009548632812500001,0,0,0.009548632812500001,5.84376328125,0)" xlink:href="#bp"/></g><g id="am"><use transform="matrix(0.009548632812500001,0,0,0.009548632812500001,0,0)" xlink:href="#bf"/><use transform="matrix(0.009548632812500001,0,0,0.009548632812500001,7.4192876953125,0)" xlink:href="#bm"/><use transform="matrix(0.009548632812500001,0,0,0.009548632812500001,18.161499609375,0)" xlink:href="#bg"/><use transform="matrix(0.009548632812500001,0,0,0.009548632812500001,24.005262890624998,0)" xlink:href="#aY"/><use transform="matrix(0.009548632812500001,0,0,0.009548632812500001,33.935841015625,0)" xlink:href="#bf"/><use transform="matrix(0.009548632812500001,0,0,0.009548632812500001,42.65374277343751,0)" xlink:href="#bl"/></g><g id="an"><use transform="matrix(0.009548632812500001,0,0,0.009548632812500001,0,0)" xlink:href="#bg"/><use transform="matrix(0.009548632812500001,0,0,0.009548632812500001,5.84376328125,0)" xlink:href="#bp"/></g><g id="ao"><use transform="matrix(0.009548632812500001,0,0,0.009548632812500001,0,0)" xlink:href="#bi"/><use transform="matrix(0.009548632812500001,0,0,0.009548632812500001,14.7717349609375,0)" xlink:href="#bp"/><use transform="matrix(0.009548632812500001,0,0,0.009548632812500001,25.513946875000002,0)" xlink:href="#bf"/><use transform="matrix(0.009548632812500001,0,0,0.009548632812500001,32.93323457031251,0)" xlink:href="#bm"/></g><g id="ap"><use transform="matrix(0.009548632812500001,0,0,0.009548632812500001,0,0)" xlink:href="#bu"/><use transform="matrix(0.009548632812500001,0,0,0.009548632812500001,10.503496093750002,0)" xlink:href="#bk"/><use transform="matrix(0.009548632812500001,0,0,0.009548632812500001,20.682338671875,0)" xlink:href="#bi"/><use transform="matrix(0.009548632812500001,0,0,0.009548632812500001,35.4540736328125,0)" xlink:href="#bm"/><use transform="matrix(0.009548632812500001,0,0,0.009548632812500001,46.196285546875,0)" xlink:href="#aZ"/></g><g id="aq"><use transform="matrix(0.009548632812500001,0,0,0.009548632812500001,0,0)" xlink:href="#be"/><use transform="matrix(0.009548632812500001,0,0,0.009548632812500001,3.8194531250000003,0)" xlink:href="#bl"/></g><g id="ar"><use transform="matrix(0.009548632812500001,0,0,0.009548632812500001,0,0)" xlink:href="#bv"/><use transform="matrix(0.009548632812500001,0,0,0.009548632812500001,4.6310869140625,0)" xlink:href="#aY"/><use transform="matrix(0.009548632812500001,0,0,0.009548632812500001,14.561665039062502,0)" xlink:href="#bg"/><use transform="matrix(0.009548632812500001,0,0,0.009548632812500001,20.405428320312502,0)" xlink:href="#aY"/><use transform="matrix(0.009548632812500001,0,0,0.009548632812500001,30.336006445312503,0)" xlink:href="#bf"/><use transform="matrix(0.009548632812500001,0,0,0.009548632812500001,37.755294140625004,0)" xlink:href="#bm"/><use transform="matrix(0.009548632812500001,0,0,0.009548632812500001,48.497506054687506,0)" xlink:href="#aW"/></g><path d="M698-616c0-135-113-233-251-233-70 0-129 20-177 60h-4l-109-75c79-77 175-115 289-115 214 0 384 152 384 363 0 119-80 231-181 250C799-318 912-188 916 0c4 226-207 387-438 387S33 226 40 0h132c0 56 22 112 65 170s124 87 241 87c163 0 308-108 308-264 0-184-169-294-362-290v-127c144 1 274-60 274-192" id="bG"/><g id="as"><use transform="matrix(0.0087890625,0,0,0.0087890625,0,0)" xlink:href="#bG"/><use transform="matrix(0.0087890625,0,0,0.0087890625,9.0615234375,0)" xlink:href="#aW"/></g><path d="M695-649l-152-510-156 510h308zM888 0L732-517H348L192 0H57l406-1355h160L1029 0H888" id="bH"/><g id="at"><use transform="matrix(0.009548632812500001,0,0,0.009548632812500001,0,0)" xlink:href="#bH"/><use transform="matrix(0.009548632812500001,0,0,0.009548632812500001,10.980927734375001,0)" xlink:href="#br"/><use transform="matrix(0.009548632812500001,0,0,0.009548632812500001,21.847271875,0)" xlink:href="#aZ"/><use transform="matrix(0.009548632812500001,0,0,0.009548632812500001,31.424550585937503,0)" xlink:href="#bm"/><use transform="matrix(0.009548632812500001,0,0,0.009548632812500001,42.166762500000004,0)" xlink:href="#bl"/><use transform="matrix(0.009548632812500001,0,0,0.009548632812500001,52.83258535156251,0)" xlink:href="#by"/><use transform="matrix(0.009548632812500001,0,0,0.009548632812500001,63.183303320312504,0)" xlink:href="#bm"/></g><g id="au"><use transform="matrix(0.009548632812500001,0,0,0.009548632812500001,0,0)" xlink:href="#bc"/><use transform="matrix(0.009548632812500001,0,0,0.009548632812500001,10.742211914062501,0)" xlink:href="#bk"/><use transform="matrix(0.009548632812500001,0,0,0.009548632812500001,20.9210544921875,0)" xlink:href="#bv"/><use transform="matrix(0.009548632812500001,0,0,0.009548632812500001,25.55214140625,0)" xlink:href="#bm"/><use transform="matrix(0.009548632812500001,0,0,0.009548632812500001,36.2943533203125,0)" xlink:href="#bg"/><use transform="matrix(0.009548632812500001,0,0,0.009548632812500001,42.1381166015625,0)" xlink:href="#bb"/></g><g id="av"><use transform="matrix(0.009548632812500001,0,0,0.009548632812500001,0,0)" xlink:href="#bc"/><use transform="matrix(0.009548632812500001,0,0,0.009548632812500001,10.742211914062501,0)" xlink:href="#be"/><use transform="matrix(0.009548632812500001,0,0,0.009548632812500001,14.561665039062502,0)" xlink:href="#bu"/><use transform="matrix(0.009548632812500001,0,0,0.009548632812500001,25.065161132812506,0)" xlink:href="#bl"/><use transform="matrix(0.009548632812500001,0,0,0.009548632812500001,35.73098398437501,0)" xlink:href="#bk"/><use transform="matrix(0.009548632812500001,0,0,0.009548632812500001,45.9098265625,0)" xlink:href="#bu"/><use transform="matrix(0.009548632812500001,0,0,0.009548632812500001,56.41332265625002,0)" xlink:href="#bm"/></g><g id="aw"><use transform="matrix(0.009548632812500001,0,0,0.009548632812500001,0,0)" xlink:href="#bC"/><use transform="matrix(0.009548632812500001,0,0,0.009548632812500001,8.8133880859375,0)" xlink:href="#bk"/><use transform="matrix(0.009548632812500001,0,0,0.009548632812500001,18.992230664062504,0)" xlink:href="#bl"/><use transform="matrix(0.009548632812500001,0,0,0.009548632812500001,29.658053515625006,0)" xlink:href="#aZ"/></g><g id="ax"><use transform="matrix(0.009548632812500001,0,0,0.009548632812500001,0,0)" xlink:href="#bc"/><use transform="matrix(0.009548632812500001,0,0,0.009548632812500001,10.742211914062501,0)" xlink:href="#be"/><use transform="matrix(0.009548632812500001,0,0,0.009548632812500001,14.561665039062502,0)" xlink:href="#bu"/><use transform="matrix(0.009548632812500001,0,0,0.009548632812500001,25.065161132812506,0)" xlink:href="#bl"/><use transform="matrix(0.009548632812500001,0,0,0.009548632812500001,35.73098398437501,0)" xlink:href="#aZ"/></g><g id="ay"><use transform="matrix(0.009548632812500001,0,0,0.009548632812500001,0,0)" xlink:href="#by"/><use transform="matrix(0.009548632812500001,0,0,0.009548632812500001,10.35071796875,0)" xlink:href="#bk"/><use transform="matrix(0.009548632812500001,0,0,0.009548632812500001,20.529560546875,0)" xlink:href="#bl"/></g><g id="az"><use transform="matrix(0.009548632812500001,0,0,0.009548632812500001,0,0)" xlink:href="#bs"/><use transform="matrix(0.009548632812500001,0,0,0.009548632812500001,10.169293945312502,0)" xlink:href="#bm"/><use transform="matrix(0.009548632812500001,0,0,0.009548632812500001,20.911505859375,0)" xlink:href="#bq"/><use transform="matrix(0.009548632812500001,0,0,0.009548632812500001,24.301270507812504,0)" xlink:href="#bd"/></g><g id="aA"><use transform="matrix(0.009548632812500001,0,0,0.009548632812500001,0,0)" xlink:href="#bk"/><use transform="matrix(0.009548632812500001,0,0,0.009548632812500001,10.178842578125002,0)" xlink:href="#bn"/><use transform="matrix(0.009548632812500001,0,0,0.009548632812500001,20.806470898437503,0)" xlink:href="#bn"/><use transform="matrix(0.009548632812500001,0,0,0.009548632812500001,31.434099218750006,0)" xlink:href="#bf"/><use transform="matrix(0.009548632812500001,0,0,0.009548632812500001,38.85338691406251,0)" xlink:href="#bm"/><use transform="matrix(0.009548632812500001,0,0,0.009548632812500001,49.59559882812501,0)" xlink:href="#aZ"/><use transform="matrix(0.009548632812500001,0,0,0.009548632812500001,59.17287753906251,0)" xlink:href="#aZ"/></g><g id="aB"><use transform="matrix(0.009548632812500001,0,0,0.009548632812500001,0,0)" xlink:href="#bq"/><use transform="matrix(0.009548632812500001,0,0,0.009548632812500001,3.3897646484375,0)" xlink:href="#bk"/><use transform="matrix(0.009548632812500001,0,0,0.009548632812500001,13.568607226562502,0)" xlink:href="#bf"/><use transform="matrix(0.009548632812500001,0,0,0.009548632812500001,21.140673046875,0)" xlink:href="#bu"/><use transform="matrix(0.009548632812500001,0,0,0.009548632812500001,31.644169140625003,0)" xlink:href="#bm"/></g><g id="aC"><use transform="matrix(0.009548632812500001,0,0,0.009548632812500001,0,0)" xlink:href="#by"/><use transform="matrix(0.009548632812500001,0,0,0.009548632812500001,10.35071796875,0)" xlink:href="#bf"/><use transform="matrix(0.009548632812500001,0,0,0.009548632812500001,17.4644494140625,0)" xlink:href="#bp"/><use transform="matrix(0.009548632812500001,0,0,0.009548632812500001,27.289992578125002,0)" xlink:href="#bt"/><use transform="matrix(0.009548632812500001,0,0,0.009548632812500001,41.030475195312505,0)" xlink:href="#bn"/><use transform="matrix(0.009548632812500001,0,0,0.009548632812500001,51.65810351562501,0)" xlink:href="#aZ"/><use transform="matrix(0.009548632812500001,0,0,0.009548632812500001,61.23538222656251,0)" xlink:href="#aW"/></g><path d="M49-130h171v-1096H49v-129h479v129H352v1096h176V0H49v-130" id="bI"/><g id="aD"><use transform="matrix(0.009548632812500001,0,0,0.009548632812500001,0,0)" xlink:href="#bI"/><use transform="matrix(0.009548632812500001,0,0,0.009548632812500001,5.84376328125,0)" xlink:href="#bg"/></g><g id="aE"><use transform="matrix(0.009548632812500001,0,0,0.009548632812500001,0,0)" xlink:href="#be"/><use transform="matrix(0.009548632812500001,0,0,0.009548632812500001,3.8194531250000003,0)" xlink:href="#bi"/><use transform="matrix(0.009548632812500001,0,0,0.009548632812500001,18.5911880859375,0)" xlink:href="#bd"/><use transform="matrix(0.009548632812500001,0,0,0.009548632812500001,29.21881640625,0)" xlink:href="#bp"/><use transform="matrix(0.009548632812500001,0,0,0.009548632812500001,39.9610283203125,0)" xlink:href="#bf"/><use transform="matrix(0.009548632812500001,0,0,0.009548632812500001,48.14420664062501,0)" xlink:href="#bg"/><use transform="matrix(0.009548632812500001,0,0,0.009548632812500001,53.987969921875,0)" xlink:href="#bk"/><use transform="matrix(0.009548632812500001,0,0,0.009548632812500001,64.1668125,0)" xlink:href="#bl"/><use transform="matrix(0.009548632812500001,0,0,0.009548632812500001,74.8326353515625,0)" xlink:href="#bg"/></g><g id="aF"><use transform="matrix(0.009548632812500001,0,0,0.009548632812500001,0,0)" xlink:href="#aZ"/><use transform="matrix(0.009548632812500001,0,0,0.009548632812500001,9.5772787109375,0)" xlink:href="#be"/><use transform="matrix(0.009548632812500001,0,0,0.009548632812500001,13.396731835937501,0)" xlink:href="#bu"/><use transform="matrix(0.009548632812500001,0,0,0.009548632812500001,23.900227929687503,0)" xlink:href="#bl"/><use transform="matrix(0.009548632812500001,0,0,0.009548632812500001,34.566050781250006,0)" xlink:href="#aZ"/></g><g id="aG"><use transform="matrix(0.009548632812500001,0,0,0.009548632812500001,0,0)" xlink:href="#br"/><use transform="matrix(0.009548632812500001,0,0,0.009548632812500001,10.866344140625001,0)" xlink:href="#bp"/><use transform="matrix(0.009548632812500001,0,0,0.009548632812500001,21.608556054687508,0)" xlink:href="#bg"/><use transform="matrix(0.009548632812500001,0,0,0.009548632812500001,27.452319335937503,0)" xlink:href="#bs"/></g><g id="aH"><use transform="matrix(0.009548632812500001,0,0,0.009548632812500001,0,0)" xlink:href="#bw"/><use transform="matrix(0.009548632812500001,0,0,0.009548632812500001,10.322072070312501,0)" xlink:href="#be"/><use transform="matrix(0.009548632812500001,0,0,0.009548632812500001,14.141525195312502,0)" xlink:href="#aZ"/><use transform="matrix(0.009548632812500001,0,0,0.009548632812500001,23.718803906250002,0)" xlink:href="#be"/><use transform="matrix(0.009548632812500001,0,0,0.009548632812500001,27.53825703125,0)" xlink:href="#br"/><use transform="matrix(0.009548632812500001,0,0,0.009548632812500001,38.404601171875,0)" xlink:href="#bq"/><use transform="matrix(0.009548632812500001,0,0,0.009548632812500001,41.79436582031251,0)" xlink:href="#bm"/></g><g id="aI"><use transform="matrix(0.009548632812500001,0,0,0.009548632812500001,0,0)" xlink:href="#aY"/><use transform="matrix(0.009548632812500001,0,0,0.009548632812500001,9.930578125,0)" xlink:href="#bl"/><use transform="matrix(0.009548632812500001,0,0,0.009548632812500001,20.5964009765625,0)" xlink:href="#bn"/><use transform="matrix(0.009548632812500001,0,0,0.009548632812500001,31.224029296875003,0)" xlink:href="#bm"/><use transform="matrix(0.009548632812500001,0,0,0.009548632812500001,41.966241210937504,0)" xlink:href="#bf"/><use transform="matrix(0.009548632812500001,0,0,0.009548632812500001,50.149419531250004,0)" xlink:href="#aZ"/><use transform="matrix(0.009548632812500001,0,0,0.009548632812500001,59.7266982421875,0)" xlink:href="#bg"/><use transform="matrix(0.009548632812500001,0,0,0.009548632812500001,65.5704615234375,0)" xlink:href="#bk"/><use transform="matrix(0.009548632812500001,0,0,0.009548632812500001,75.7493041015625,0)" xlink:href="#bl"/><use transform="matrix(0.009548632812500001,0,0,0.009548632812500001,86.415126953125,0)" xlink:href="#bn"/><use transform="matrix(0.009548632812500001,0,0,0.009548632812500001,97.04275527343749,0)" xlink:href="#bk"/><use transform="matrix(0.009548632812500001,0,0,0.009548632812500001,107.22159785156249,0)" xlink:href="#br"/><use transform="matrix(0.009548632812500001,0,0,0.009548632812500001,118.0879419921875,0)" xlink:href="#bq"/><use transform="matrix(0.009548632812500001,0,0,0.009548632812500001,121.47770664062499,0)" xlink:href="#bm"/><use transform="matrix(0.009548632812500001,0,0,0.009548632812500001,132.2199185546875,0)" xlink:href="#aW"/></g><g id="aJ"><use transform="matrix(0.009548632812500001,0,0,0.009548632812500001,0,0)" xlink:href="#bc"/><use transform="matrix(0.009548632812500001,0,0,0.009548632812500001,10.742211914062501,0)" xlink:href="#be"/><use transform="matrix(0.009548632812500001,0,0,0.009548632812500001,14.561665039062502,0)" xlink:href="#bu"/><use transform="matrix(0.009548632812500001,0,0,0.009548632812500001,25.065161132812506,0)" xlink:href="#bl"/><use transform="matrix(0.009548632812500001,0,0,0.009548632812500001,35.73098398437501,0)" xlink:href="#aZ"/></g><g id="aK"><use transform="matrix(0.009548632812500001,0,0,0.009548632812500001,0,0)" xlink:href="#br"/><use transform="matrix(0.009548632812500001,0,0,0.009548632812500001,10.866344140625001,0)" xlink:href="#bm"/></g><g id="aL"><use transform="matrix(0.009548632812500001,0,0,0.009548632812500001,0,0)" xlink:href="#bs"/><use transform="matrix(0.009548632812500001,0,0,0.009548632812500001,10.169293945312502,0)" xlink:href="#bm"/><use transform="matrix(0.009548632812500001,0,0,0.009548632812500001,20.911505859375,0)" xlink:href="#bq"/><use transform="matrix(0.009548632812500001,0,0,0.009548632812500001,24.301270507812504,0)" xlink:href="#bd"/><use transform="matrix(0.009548632812500001,0,0,0.009548632812500001,34.928898828125,0)" xlink:href="#bv"/><use transform="matrix(0.009548632812500001,0,0,0.009548632812500001,39.55998574218751,0)" xlink:href="#aY"/><use transform="matrix(0.009548632812500001,0,0,0.009548632812500001,49.490563867187504,0)" xlink:href="#bq"/></g><g id="aM"><use transform="matrix(0.009548632812500001,0,0,0.009548632812500001,0,0)" xlink:href="#aZ"/><use transform="matrix(0.009548632812500001,0,0,0.009548632812500001,9.5772787109375,0)" xlink:href="#bk"/><use transform="matrix(0.009548632812500001,0,0,0.009548632812500001,19.756121289062502,0)" xlink:href="#bv"/><use transform="matrix(0.009548632812500001,0,0,0.009548632812500001,24.387208203125002,0)" xlink:href="#bm"/><use transform="matrix(0.009548632812500001,0,0,0.009548632812500001,35.12942011718751,0)" xlink:href="#bg"/><use transform="matrix(0.009548632812500001,0,0,0.009548632812500001,40.973183398437506,0)" xlink:href="#bb"/></g><g id="aN"><use transform="matrix(0.009548632812500001,0,0,0.009548632812500001,0,0)" xlink:href="#by"/><use transform="matrix(0.009548632812500001,0,0,0.009548632812500001,10.35071796875,0)" xlink:href="#bp"/><use transform="matrix(0.009548632812500001,0,0,0.009548632812500001,21.092929882812502,0)" xlink:href="#bl"/><use transform="matrix(0.009548632812500001,0,0,0.009548632812500001,31.758752734375005,0)" xlink:href="#by"/><use transform="matrix(0.009548632812500001,0,0,0.009548632812500001,42.109470703125,0)" xlink:href="#bm"/><use transform="matrix(0.009548632812500001,0,0,0.009548632812500001,52.8516826171875,0)" xlink:href="#bf"/><use transform="matrix(0.009548632812500001,0,0,0.009548632812500001,61.569584375,0)" xlink:href="#bl"/><use transform="matrix(0.009548632812500001,0,0,0.009548632812500001,72.2354072265625,0)" xlink:href="#aZ"/></g><g id="aO"><use transform="matrix(0.009548632812500001,0,0,0.009548632812500001,0,0)" xlink:href="#bm"/><use transform="matrix(0.009548632812500001,0,0,0.009548632812500001,10.742211914062501,0)" xlink:href="#aZ"/><use transform="matrix(0.009548632812500001,0,0,0.009548632812500001,20.319490625,0)" xlink:href="#bd"/><use transform="matrix(0.009548632812500001,0,0,0.009548632812500001,30.947118945312504,0)" xlink:href="#bm"/><use transform="matrix(0.009548632812500001,0,0,0.009548632812500001,41.689330859375005,0)" xlink:href="#by"/><use transform="matrix(0.009548632812500001,0,0,0.009548632812500001,52.040048828125,0)" xlink:href="#be"/><use transform="matrix(0.009548632812500001,0,0,0.009548632812500001,55.85950195312501,0)" xlink:href="#bk"/><use transform="matrix(0.009548632812500001,0,0,0.009548632812500001,66.03834453125002,0)" xlink:href="#bq"/><use transform="matrix(0.009548632812500001,0,0,0.009548632812500001,69.42810917968752,0)" xlink:href="#bq"/><use transform="matrix(0.009548632812500001,0,0,0.009548632812500001,72.81787382812503,0)" xlink:href="#bb"/></g><g id="aP"><use transform="matrix(0.009548632812500001,0,0,0.009548632812500001,0,0)" xlink:href="#bt"/><use transform="matrix(0.009548632812500001,0,0,0.009548632812500001,13.740482617187501,0)" xlink:href="#bs"/><use transform="matrix(0.009548632812500001,0,0,0.009548632812500001,23.9097765625,0)" xlink:href="#bm"/><use transform="matrix(0.009548632812500001,0,0,0.009548632812500001,34.6519884765625,0)" xlink:href="#bl"/></g><g id="aQ"><use transform="matrix(0.009548632812500001,0,0,0.009548632812500001,0,0)" xlink:href="#bf"/><use transform="matrix(0.009548632812500001,0,0,0.009548632812500001,7.4192876953125,0)" xlink:href="#bk"/><use transform="matrix(0.009548632812500001,0,0,0.009548632812500001,17.5981302734375,0)" xlink:href="#be"/><use transform="matrix(0.009548632812500001,0,0,0.009548632812500001,21.4175833984375,0)" xlink:href="#bl"/><use transform="matrix(0.009548632812500001,0,0,0.009548632812500001,32.08340625,0)" xlink:href="#aZ"/><use transform="matrix(0.009548632812500001,0,0,0.009548632812500001,41.6606849609375,0)" xlink:href="#aW"/></g><path fill="#c92d39" d="M540-1249c-205 0-353 174-353 382v377c-5 208 148 382 353 382s353-174 353-382v-377c5-208-148-382-353-382zm0-130c272 0 483 251 483 528v345c8 277-211 528-483 528S57-229 57-506v-345c-8-277 211-528 483-528" id="bJ"/><path fill="#c92d39" d="M922-478c0-187-188-371-375-371S209-669 209-478c0 190 155 370 343 370 187 0 370-183 370-370zm130 0c0 255-245 500-500 500-147 0-263-65-348-196V0H72v-1355h132v572c82-131 196-196 343-196 256 0 505 245 505 501" id="bK"/><path fill="#c92d39" d="M898-260C898-89 674 20 489 20 280 20 75-78 57-254l126-27c2 114 176 171 313 171 113 0 265-50 265-150 0-60-40-102-120-127-21-6-104-22-252-42-166-23-242-71-302-158-134-339 365-481 654-327 94 50 148 120 161 213l-126 27c-25-116-134-174-329-174-116 0-251 47-251 149 0 73 54 127 164 147 83 15 168 18 253 29 83 11 158 46 225 101 40 33 60 87 60 162" id="bL"/><path fill="#c92d39" d="M52-478c0-256 228-501 485-501 264 0 489 248 480 516H180c0 180 174 355 357 355 148 0 301-110 347-219l130 23C955-140 749 17 537 22 280 28 52-222 52-478zm815-115c-38-129-172-257-330-256-158 0-295 130-340 256h670" id="bM"/><path fill="#c92d39" d="M550-827c-191 0-346 159-346 349V0H72v-957h132v174c85-116 198-174 339-174h204v174c-69-29-134-44-197-44" id="bN"/><path fill="#c92d39" d="M178-957l334 813 331-813h142L595 0H424L33-957h145" id="bO"/><path fill="#c92d39" d="M497-108c108 0 303-51 303-143v-220c-2 23-338 19-365 38-104 20-200 82-200 182 0 95 87 143 262 143zm28-871c161 0 405 100 405 248v579c0 27 16 41 48 44-1 21-3 64-5 129-72-4-122-33-151-87-82 59-188 88-318 88C233 22 97-70 97-253c0-145 124-253 248-288 70-20 368-9 427-58 17-9 27-25 29-46-1 7-1-13-1-60 0-84-168-147-260-147-166 0-269 58-309 174l-126-27c31-178 203-274 420-274" id="bP"/><path fill="#c92d39" d="M406 0C279 4 176-105 176-232v-595H26v-130c75 0 120-17 137-51 9-17 13-69 13-155h130v206h241v130H306v595c0 70 49 105 146 105 18 0 78-3 95-3V0H406" id="bQ"/><path fill="#c92d39" d="M240-1205c-40 0-79-36-79-76s39-76 79-76c41 0 78 35 78 76s-37 76-78 76zM47-957h257V0H174v-827H47v-130" id="bR"/><path fill="#c92d39" d="M881-477c0-189-160-372-351-372-189 0-348 181-348 372s160 369 348 369 351-180 351-369zm-829-1c0-256 220-501 478-501 257 0 481 246 481 502S785 22 530 22C276 22 52-223 52-478" id="bS"/><path fill="#c92d39" d="M545-849c-196 0-341 171-341 371V0H74v-957h130v174c77-131 190-196 341-196 285 0 449 200 449 493V0H862v-478c2-219-106-371-317-371" id="bT"/><g id="aR"><use transform="matrix(0.01193576388888889,0,0,0.01193576388888889,0,0)" xlink:href="#bJ"/><use transform="matrix(0.01193576388888889,0,0,0.01193576388888889,13.511284722222223,0)" xlink:href="#bK"/><use transform="matrix(0.01193576388888889,0,0,0.01193576388888889,27.09418402777778,0)" xlink:href="#bL"/><use transform="matrix(0.01193576388888889,0,0,0.01193576388888889,39.065755208333336,0)" xlink:href="#bM"/><use transform="matrix(0.01193576388888889,0,0,0.01193576388888889,52.493489583333336,0)" xlink:href="#bN"/><use transform="matrix(0.01193576388888889,0,0,0.01193576388888889,62.722439236111114,0)" xlink:href="#bO"/><use transform="matrix(0.01193576388888889,0,0,0.01193576388888889,75.625,0)" xlink:href="#bP"/><use transform="matrix(0.01193576388888889,0,0,0.01193576388888889,87.77560763888889,0)" xlink:href="#bQ"/><use transform="matrix(0.01193576388888889,0,0,0.01193576388888889,95.08029513888889,0)" xlink:href="#bR"/><use transform="matrix(0.01193576388888889,0,0,0.01193576388888889,99.85460069444446,0)" xlink:href="#bS"/><use transform="matrix(0.01193576388888889,0,0,0.01193576388888889,113.28233506944446,0)" xlink:href="#bT"/></g><path fill="#c92d39" d="M865-1355v130H204v424h531v134H204V0H74v-1355h791" id="bU"/><path fill="#c92d39" d="M-2-478c0-256 249-501 505-501 147 0 261 65 343 196v-572h132V0H846v-174C761-43 645 22 498 22 243 22-2-223-2-478zm843 0c0-191-151-371-338-371S128-665 128-478s183 370 370 370c188 0 343-180 343-370" id="bV"/><path fill="#c92d39" d="M177-478c0 192 146 370 333 370s324-179 324-370c0-193-136-371-324-371-187 0-333 180-333 371zm332 742c191 3 334-157 330-347v-91C756-43 647 22 510 22 246 22 47-209 47-478c0-259 208-501 463-501 140 0 250 67 329 201v-179h130v888c6 260-201 463-461 463C272 394 95 221 61 14L188-7c30 151 149 268 321 271" id="bW"/><g id="aS"><use transform="matrix(0.01193576388888889,0,0,0.01193576388888889,0,0)" xlink:href="#bU"/><use transform="matrix(0.01193576388888889,0,0,0.01193576388888889,11.016710069444445,0)" xlink:href="#bR"/><use transform="matrix(0.01193576388888889,0,0,0.01193576388888889,15.791015625000002,0)" xlink:href="#bT"/><use transform="matrix(0.01193576388888889,0,0,0.01193576388888889,29.123263888888893,0)" xlink:href="#bV"/><use transform="matrix(0.01193576388888889,0,0,0.01193576388888889,42.40776909722222,0)" xlink:href="#bR"/><use transform="matrix(0.01193576388888889,0,0,0.01193576388888889,47.18207465277778,0)" xlink:href="#bT"/><use transform="matrix(0.01193576388888889,0,0,0.01193576388888889,60.51432291666667,0)" xlink:href="#bW"/><use transform="matrix(0.01193576388888889,0,0,0.01193576388888889,73.64366319444446,0)" xlink:href="#bL"/></g><path fill="#c92d39" d="M274-822c0 59 38 123 113 192 104-41 156-99 156-174 0-89-44-134-132-134-91 0-137 39-137 116zm386 21c-6 160-72 196-197 268l235 276c33-33 48-68 45-105h138c0 68-34 139-103 214l61 79L728 4l-54-69C603-22 505-1 382-1 212-1 58-161 58-330c0-109 65-195 195-258-45-72-114-136-114-252 0-132 131-226 267-226 151 0 260 114 254 265zM192-328c0 118 84 198 202 198 89 0 157-12 204-37L329-496c-91 37-137 93-137 168" id="bX"/><use transform="matrix(0.01193576388888889,0,0,0.01193576388888889,0,0)" xlink:href="#bX" id="aT"/><path fill="#c92d39" d="M426-108c139 0 276-121 276-261v-856H508v-130h326v993c9 202-201 384-406 384C219 22 5-162 14-369v-126h130v132c-8 123 158 255 282 255" id="bY"/><path fill="#c92d39" d="M483-108c191 0 291-169 291-370v-479h130V0H774v-137C701-31 604 22 483 22 219 22 67-183 67-456v-501h130v501c-4 182 112 348 286 348" id="bZ"/><path fill="#c92d39" d="M431-1222c-103-2-191 65-188 167v98h188v130H243V0H111v-827H33v-130h78c-7-146 8-241 94-317 61-53 135-81 226-81v133" id="ca"/><path fill="#c92d39" d="M51-478c0-256 221-509 478-501 201 6 353 126 426 274H803c-71-96-163-144-274-144-189 0-348 180-348 372 0 191 160 369 348 369 100 0 189-44 266-132h155C852-65 712 22 529 22 275 22 51-223 51-478" id="cb"/><g id="aU"><use transform="matrix(0.01193576388888889,0,0,0.01193576388888889,0,0)" xlink:href="#bY"/><use transform="matrix(0.01193576388888889,0,0,0.01193576388888889,11.39865451388889,0)" xlink:href="#bZ"/><use transform="matrix(0.01193576388888889,0,0,0.01193576388888889,23.811848958333336,0)" xlink:href="#bL"/><use transform="matrix(0.01193576388888889,0,0,0.01193576388888889,35.78342013888889,0)" xlink:href="#bQ"/><use transform="matrix(0.01193576388888889,0,0,0.01193576388888889,43.08810763888889,0)" xlink:href="#bR"/><use transform="matrix(0.01193576388888889,0,0,0.01193576388888889,47.86241319444445,0)" xlink:href="#ca"/><use transform="matrix(0.01193576388888889,0,0,0.01193576388888889,53.65125868055556,0)" xlink:href="#bR"/><use transform="matrix(0.01193576388888889,0,0,0.01193576388888889,58.42556423611113,0)" xlink:href="#cb"/><use transform="matrix(0.01193576388888889,0,0,0.01193576388888889,71.36393229166669,0)" xlink:href="#bP"/><use transform="matrix(0.01193576388888889,0,0,0.01193576388888889,83.51453993055557,0)" xlink:href="#bQ"/><use transform="matrix(0.01193576388888889,0,0,0.01193576388888889,90.81922743055557,0)" xlink:href="#bR"/><use transform="matrix(0.01193576388888889,0,0,0.01193576388888889,95.59353298611113,0)" xlink:href="#bS"/><use transform="matrix(0.01193576388888889,0,0,0.01193576388888889,109.02126736111111,0)" xlink:href="#bT"/><use transform="matrix(0.01193576388888889,0,0,0.01193576388888889,122.35351562500001,0)" xlink:href="#bL"/></g></defs></g></svg>